<?xml version="1.0" standalone="no"?><!-- Generator: Gravit.io --><svg xmlns="http://www.w3.org/2000/svg" xmlns:xlink="http://www.w3.org/1999/xlink" style="isolation:isolate" viewBox="0 0 65 55" width="65" height="55"><defs><clipPath id="_clipPath_4wLSDCs9oMuRXt3Ql9S8wUHHzpt5P5fu"><rect width="65" height="55"/></clipPath></defs><g clip-path="url(#_clipPath_4wLSDCs9oMuRXt3Ql9S8wUHHzpt5P5fu)"><clipPath id="_clipPath_nW2iMbYRJrqw9c00PnxH6QpcsfnHquqX"><rect x="0" y="0" width="65" height="55" transform="matrix(1,0,0,1,0,0)" fill="rgb(255,255,255)"/></clipPath><g clip-path="url(#_clipPath_nW2iMbYRJrqw9c00PnxH6QpcsfnHquqX)"><g id="Calendar"><rect x="0" y="0" width="65" height="55" transform="matrix(1,0,0,1,0,0)" fill="none"/><g id="Group_425"><path d=" M 14.88 40.293 L 16.011 40.293 L 16.011 40.293 Q 15.94 40.896 15.715 41.415 L 15.715 41.415 L 15.715 41.415 Q 15.489 41.934 15.091 42.312 L 15.091 42.312 L 15.091 42.312 Q 14.692 42.689 14.118 42.903 L 14.118 42.903 L 14.118 42.903 Q 13.544 43.117 12.776 43.117 L 12.776 43.117 L 12.776 43.117 Q 12.02 43.117 11.405 42.836 L 11.405 42.836 L 11.405 42.836 Q 10.79 42.555 10.353 42.036 L 10.353 42.036 L 10.353 42.036 Q 9.917 41.518 9.68 40.791 L 9.68 40.791 L 9.68 40.791 Q 9.442 40.064 9.442 39.168 L 9.442 39.168 L 9.442 38.313 L 9.442 38.313 Q 9.442 37.416 9.682 36.687 L 9.682 36.687 L 9.682 36.687 Q 9.923 35.957 10.368 35.438 L 10.368 35.438 L 10.368 35.438 Q 10.813 34.92 11.449 34.636 L 11.449 34.636 L 11.449 34.636 Q 12.085 34.352 12.876 34.352 L 12.876 34.352 L 12.876 34.352 Q 13.597 34.352 14.153 34.563 L 14.153 34.563 L 14.153 34.563 Q 14.71 34.773 15.099 35.151 L 15.099 35.151 L 15.099 35.151 Q 15.489 35.529 15.718 36.054 L 15.718 36.054 L 15.718 36.054 Q 15.946 36.578 16.011 37.211 L 16.011 37.211 L 14.88 37.211 L 14.88 37.211 Q 14.815 36.766 14.681 36.408 L 14.681 36.408 L 14.681 36.408 Q 14.546 36.051 14.308 35.799 L 14.308 35.799 L 14.308 35.799 Q 14.071 35.547 13.72 35.412 L 13.72 35.412 L 13.72 35.412 Q 13.368 35.277 12.876 35.277 L 12.876 35.277 L 12.876 35.277 Q 12.307 35.277 11.877 35.497 L 11.877 35.497 L 11.877 35.497 Q 11.446 35.717 11.156 36.112 L 11.156 36.112 L 11.156 36.112 Q 10.866 36.508 10.72 37.067 L 10.72 37.067 L 10.72 37.067 Q 10.573 37.627 10.573 38.301 L 10.573 38.301 L 10.573 39.168 L 10.573 39.168 Q 10.573 39.795 10.705 40.346 L 10.705 40.346 L 10.705 40.346 Q 10.837 40.896 11.106 41.31 L 11.106 41.31 L 11.106 41.31 Q 11.376 41.723 11.792 41.96 L 11.792 41.96 L 11.792 41.96 Q 12.208 42.197 12.776 42.197 L 12.776 42.197 L 12.776 42.197 Q 13.315 42.197 13.684 42.068 L 13.684 42.068 L 13.684 42.068 Q 14.054 41.939 14.297 41.696 L 14.297 41.696 L 14.297 41.696 Q 14.54 41.453 14.675 41.099 L 14.675 41.099 L 14.675 41.099 Q 14.809 40.744 14.88 40.293 L 14.88 40.293 L 14.88 40.293 Z  M 22.427 43 L 21.29 43 L 21.29 43 Q 21.231 42.883 21.196 42.704 L 21.196 42.704 L 21.196 42.704 Q 21.161 42.525 21.138 42.332 L 21.138 42.332 L 21.138 42.332 Q 20.985 42.49 20.795 42.634 L 20.795 42.634 L 20.795 42.634 Q 20.604 42.777 20.379 42.886 L 20.379 42.886 L 20.379 42.886 Q 20.153 42.994 19.89 43.056 L 19.89 43.056 L 19.89 43.056 Q 19.626 43.117 19.333 43.117 L 19.333 43.117 L 19.333 43.117 Q 18.847 43.117 18.451 42.971 L 18.451 42.971 L 18.451 42.971 Q 18.056 42.824 17.777 42.572 L 17.777 42.572 L 17.777 42.572 Q 17.499 42.32 17.347 41.978 L 17.347 41.978 L 17.347 41.978 Q 17.194 41.635 17.194 41.242 L 17.194 41.242 L 17.194 41.242 Q 17.194 40.732 17.393 40.343 L 17.393 40.343 L 17.393 40.343 Q 17.593 39.953 17.965 39.689 L 17.965 39.689 L 17.965 39.689 Q 18.337 39.426 18.864 39.291 L 18.864 39.291 L 18.864 39.291 Q 19.391 39.156 20.042 39.156 L 20.042 39.156 L 21.12 39.156 L 21.12 38.658 L 21.12 38.658 Q 21.12 38.09 20.78 37.753 L 20.78 37.753 L 20.78 37.753 Q 20.44 37.416 19.778 37.416 L 19.778 37.416 L 19.778 37.416 Q 19.474 37.416 19.222 37.498 L 19.222 37.498 L 19.222 37.498 Q 18.97 37.58 18.791 37.718 L 18.791 37.718 L 18.791 37.718 Q 18.612 37.855 18.513 38.037 L 18.513 38.037 L 18.513 38.037 Q 18.413 38.219 18.413 38.418 L 18.413 38.418 L 17.323 38.418 L 17.323 38.418 Q 17.323 38.078 17.502 37.744 L 17.502 37.744 L 17.502 37.744 Q 17.681 37.41 18.009 37.144 L 18.009 37.144 L 18.009 37.144 Q 18.337 36.877 18.803 36.71 L 18.803 36.71 L 18.803 36.71 Q 19.268 36.543 19.843 36.543 L 19.843 36.543 L 19.843 36.543 Q 20.358 36.543 20.795 36.675 L 20.795 36.675 L 20.795 36.675 Q 21.231 36.807 21.542 37.073 L 21.542 37.073 L 21.542 37.073 Q 21.852 37.34 22.028 37.738 L 22.028 37.738 L 22.028 37.738 Q 22.204 38.137 22.204 38.67 L 22.204 38.67 L 22.204 41.617 L 22.204 41.617 Q 22.204 41.939 22.26 42.294 L 22.26 42.294 L 22.26 42.294 Q 22.315 42.648 22.427 42.906 L 22.427 42.906 L 22.427 43 L 22.427 43 Z  M 19.491 42.174 L 19.491 42.174 L 19.491 42.174 Q 19.784 42.174 20.042 42.092 L 20.042 42.092 L 20.042 42.092 Q 20.3 42.01 20.511 41.878 L 20.511 41.878 L 20.511 41.878 Q 20.722 41.746 20.877 41.576 L 20.877 41.576 L 20.877 41.576 Q 21.032 41.406 21.12 41.225 L 21.12 41.225 L 21.12 39.924 L 20.218 39.924 L 20.218 39.924 Q 19.286 39.924 18.782 40.214 L 18.782 40.214 L 18.782 40.214 Q 18.278 40.504 18.278 41.09 L 18.278 41.09 L 18.278 41.09 Q 18.278 41.318 18.354 41.518 L 18.354 41.518 L 18.354 41.518 Q 18.431 41.717 18.586 41.86 L 18.586 41.86 L 18.586 41.86 Q 18.741 42.004 18.967 42.089 L 18.967 42.089 L 18.967 42.089 Q 19.192 42.174 19.491 42.174 Z  M 25.081 34 L 25.081 43 L 23.997 43 L 23.997 34 L 25.081 34 L 25.081 34 Z  M 29.446 43.117 L 29.446 43.117 L 29.446 43.117 Q 28.784 43.117 28.248 42.889 L 28.248 42.889 L 28.248 42.889 Q 27.712 42.66 27.331 42.253 L 27.331 42.253 L 27.331 42.253 Q 26.95 41.846 26.745 41.283 L 26.745 41.283 L 26.745 41.283 Q 26.54 40.721 26.54 40.053 L 26.54 40.053 L 26.54 39.807 L 26.54 39.807 Q 26.54 39.033 26.771 38.424 L 26.771 38.424 L 26.771 38.424 Q 27.003 37.814 27.39 37.398 L 27.39 37.398 L 27.39 37.398 Q 27.776 36.982 28.274 36.763 L 28.274 36.763 L 28.274 36.763 Q 28.772 36.543 29.311 36.543 L 29.311 36.543 L 29.311 36.543 Q 29.991 36.543 30.483 36.78 L 30.483 36.78 L 30.483 36.78 Q 30.975 37.018 31.295 37.434 L 31.295 37.434 L 31.295 37.434 Q 31.614 37.85 31.766 38.418 L 31.766 38.418 L 31.766 38.418 Q 31.919 38.986 31.919 39.654 L 31.919 39.654 L 31.919 40.141 L 27.624 40.141 L 27.624 40.141 Q 27.636 40.58 27.767 40.961 L 27.767 40.961 L 27.767 40.961 Q 27.899 41.342 28.142 41.623 L 28.142 41.623 L 28.142 41.623 Q 28.386 41.904 28.728 42.068 L 28.728 42.068 L 28.728 42.068 Q 29.071 42.232 29.505 42.232 L 29.505 42.232 L 29.505 42.232 Q 30.079 42.232 30.477 41.998 L 30.477 41.998 L 30.477 41.998 Q 30.876 41.764 31.175 41.377 L 31.175 41.377 L 31.837 41.893 L 31.837 41.893 Q 31.684 42.127 31.468 42.347 L 31.468 42.347 L 31.468 42.347 Q 31.251 42.566 30.961 42.739 L 30.961 42.739 L 30.961 42.739 Q 30.671 42.912 30.296 43.015 L 30.296 43.015 L 30.296 43.015 Q 29.921 43.117 29.446 43.117 Z  M 29.311 37.434 L 29.311 37.434 L 29.311 37.434 Q 28.983 37.434 28.708 37.554 L 28.708 37.554 L 28.708 37.554 Q 28.432 37.674 28.216 37.902 L 28.216 37.902 L 28.216 37.902 Q 27.999 38.131 27.855 38.471 L 27.855 38.471 L 27.855 38.471 Q 27.712 38.811 27.659 39.25 L 27.659 39.25 L 30.835 39.25 L 30.835 39.168 L 30.835 39.168 Q 30.817 38.852 30.732 38.541 L 30.732 38.541 L 30.732 38.541 Q 30.647 38.23 30.469 37.984 L 30.469 37.984 L 30.469 37.984 Q 30.29 37.738 30.009 37.586 L 30.009 37.586 L 30.009 37.586 Q 29.727 37.434 29.311 37.434 Z  M 33.173 36.66 L 34.198 36.66 L 34.233 37.457 L 34.233 37.457 Q 34.573 37.029 35.054 36.786 L 35.054 36.786 L 35.054 36.786 Q 35.534 36.543 36.132 36.543 L 36.132 36.543 L 36.132 36.543 Q 36.595 36.543 36.97 36.669 L 36.97 36.669 L 36.97 36.669 Q 37.345 36.795 37.608 37.073 L 37.608 37.073 L 37.608 37.073 Q 37.872 37.352 38.016 37.788 L 38.016 37.788 L 38.016 37.788 Q 38.159 38.225 38.159 38.846 L 38.159 38.846 L 38.159 43 L 37.075 43 L 37.075 38.834 L 37.075 38.834 Q 37.075 38.465 36.993 38.204 L 36.993 38.204 L 36.993 38.204 Q 36.911 37.943 36.75 37.779 L 36.75 37.779 L 36.75 37.779 Q 36.589 37.615 36.351 37.539 L 36.351 37.539 L 36.351 37.539 Q 36.114 37.463 35.804 37.463 L 35.804 37.463 L 35.804 37.463 Q 35.276 37.463 34.878 37.744 L 34.878 37.744 L 34.878 37.744 Q 34.479 38.025 34.257 38.482 L 34.257 38.482 L 34.257 43 L 33.173 43 L 33.173 36.66 L 33.173 36.66 Z  M 39.53 39.9 L 39.53 39.777 L 39.53 39.777 Q 39.53 39.051 39.709 38.456 L 39.709 38.456 L 39.709 38.456 Q 39.888 37.861 40.216 37.437 L 40.216 37.437 L 40.216 37.437 Q 40.544 37.012 41.004 36.777 L 41.004 36.777 L 41.004 36.777 Q 41.464 36.543 42.032 36.543 L 42.032 36.543 L 42.032 36.543 Q 42.612 36.543 43.046 36.739 L 43.046 36.739 L 43.046 36.739 Q 43.479 36.936 43.796 37.305 L 43.796 37.305 L 43.796 34 L 44.88 34 L 44.88 43 L 43.884 43 L 43.831 42.32 L 43.831 42.32 Q 43.515 42.707 43.069 42.912 L 43.069 42.912 L 43.069 42.912 Q 42.624 43.117 42.02 43.117 L 42.02 43.117 L 42.02 43.117 Q 41.464 43.117 41.004 42.877 L 41.004 42.877 L 41.004 42.877 Q 40.544 42.637 40.216 42.206 L 40.216 42.206 L 40.216 42.206 Q 39.888 41.775 39.709 41.187 L 39.709 41.187 L 39.709 41.187 Q 39.53 40.598 39.53 39.9 L 39.53 39.9 L 39.53 39.9 Z  M 40.614 39.777 L 40.614 39.9 L 40.614 39.9 Q 40.614 40.375 40.711 40.794 L 40.711 40.794 L 40.711 40.794 Q 40.807 41.213 41.013 41.523 L 41.013 41.523 L 41.013 41.523 Q 41.218 41.834 41.534 42.016 L 41.534 42.016 L 41.534 42.016 Q 41.85 42.197 42.29 42.197 L 42.29 42.197 L 42.29 42.197 Q 42.577 42.197 42.806 42.13 L 42.806 42.13 L 42.806 42.13 Q 43.034 42.063 43.219 41.939 L 43.219 41.939 L 43.219 41.939 Q 43.403 41.816 43.547 41.646 L 43.547 41.646 L 43.547 41.646 Q 43.69 41.477 43.796 41.271 L 43.796 41.271 L 43.796 38.359 L 43.796 38.359 Q 43.69 38.166 43.55 38.002 L 43.55 38.002 L 43.55 38.002 Q 43.409 37.838 43.224 37.718 L 43.224 37.718 L 43.224 37.718 Q 43.04 37.598 42.811 37.53 L 42.811 37.53 L 42.811 37.53 Q 42.583 37.463 42.302 37.463 L 42.302 37.463 L 42.302 37.463 Q 41.856 37.463 41.537 37.647 L 41.537 37.647 L 41.537 37.647 Q 41.218 37.832 41.013 38.148 L 41.013 38.148 L 41.013 38.148 Q 40.807 38.465 40.711 38.884 L 40.711 38.884 L 40.711 38.884 Q 40.614 39.303 40.614 39.777 L 40.614 39.777 L 40.614 39.777 Z  M 51.612 43 L 50.475 43 L 50.475 43 Q 50.417 42.883 50.382 42.704 L 50.382 42.704 L 50.382 42.704 Q 50.347 42.525 50.323 42.332 L 50.323 42.332 L 50.323 42.332 Q 50.171 42.49 49.98 42.634 L 49.98 42.634 L 49.98 42.634 Q 49.79 42.777 49.564 42.886 L 49.564 42.886 L 49.564 42.886 Q 49.339 42.994 49.075 43.056 L 49.075 43.056 L 49.075 43.056 Q 48.811 43.117 48.518 43.117 L 48.518 43.117 L 48.518 43.117 Q 48.032 43.117 47.637 42.971 L 47.637 42.971 L 47.637 42.971 Q 47.241 42.824 46.963 42.572 L 46.963 42.572 L 46.963 42.572 Q 46.684 42.32 46.532 41.978 L 46.532 41.978 L 46.532 41.978 Q 46.38 41.635 46.38 41.242 L 46.38 41.242 L 46.38 41.242 Q 46.38 40.732 46.579 40.343 L 46.579 40.343 L 46.579 40.343 Q 46.778 39.953 47.15 39.689 L 47.15 39.689 L 47.15 39.689 Q 47.522 39.426 48.05 39.291 L 48.05 39.291 L 48.05 39.291 Q 48.577 39.156 49.227 39.156 L 49.227 39.156 L 50.306 39.156 L 50.306 38.658 L 50.306 38.658 Q 50.306 38.09 49.966 37.753 L 49.966 37.753 L 49.966 37.753 Q 49.626 37.416 48.964 37.416 L 48.964 37.416 L 48.964 37.416 Q 48.659 37.416 48.407 37.498 L 48.407 37.498 L 48.407 37.498 Q 48.155 37.58 47.976 37.718 L 47.976 37.718 L 47.976 37.718 Q 47.798 37.855 47.698 38.037 L 47.698 38.037 L 47.698 38.037 Q 47.599 38.219 47.599 38.418 L 47.599 38.418 L 46.509 38.418 L 46.509 38.418 Q 46.509 38.078 46.687 37.744 L 46.687 37.744 L 46.687 37.744 Q 46.866 37.41 47.194 37.144 L 47.194 37.144 L 47.194 37.144 Q 47.522 36.877 47.988 36.71 L 47.988 36.71 L 47.988 36.71 Q 48.454 36.543 49.028 36.543 L 49.028 36.543 L 49.028 36.543 Q 49.544 36.543 49.98 36.675 L 49.98 36.675 L 49.98 36.675 Q 50.417 36.807 50.727 37.073 L 50.727 37.073 L 50.727 37.073 Q 51.038 37.34 51.214 37.738 L 51.214 37.738 L 51.214 37.738 Q 51.39 38.137 51.39 38.67 L 51.39 38.67 L 51.39 41.617 L 51.39 41.617 Q 51.39 41.939 51.445 42.294 L 51.445 42.294 L 51.445 42.294 Q 51.501 42.648 51.612 42.906 L 51.612 42.906 L 51.612 43 L 51.612 43 Z  M 48.677 42.174 L 48.677 42.174 L 48.677 42.174 Q 48.97 42.174 49.227 42.092 L 49.227 42.092 L 49.227 42.092 Q 49.485 42.01 49.696 41.878 L 49.696 41.878 L 49.696 41.878 Q 49.907 41.746 50.062 41.576 L 50.062 41.576 L 50.062 41.576 Q 50.218 41.406 50.306 41.225 L 50.306 41.225 L 50.306 39.924 L 49.403 39.924 L 49.403 39.924 Q 48.472 39.924 47.968 40.214 L 47.968 40.214 L 47.968 40.214 Q 47.464 40.504 47.464 41.09 L 47.464 41.09 L 47.464 41.09 Q 47.464 41.318 47.54 41.518 L 47.54 41.518 L 47.54 41.518 Q 47.616 41.717 47.771 41.86 L 47.771 41.86 L 47.771 41.86 Q 47.927 42.004 48.152 42.089 L 48.152 42.089 L 48.152 42.089 Q 48.378 42.174 48.677 42.174 Z  M 56.153 36.625 L 56.153 37.633 L 56.153 37.633 Q 56.013 37.609 55.892 37.601 L 55.892 37.601 L 55.892 37.601 Q 55.772 37.592 55.62 37.592 L 55.62 37.592 L 55.62 37.592 Q 55.057 37.592 54.703 37.838 L 54.703 37.838 L 54.703 37.838 Q 54.349 38.084 54.173 38.5 L 54.173 38.5 L 54.173 43 L 53.089 43 L 53.089 36.66 L 54.143 36.66 L 54.161 37.393 L 54.161 37.393 Q 54.407 37 54.776 36.771 L 54.776 36.771 L 54.776 36.771 Q 55.145 36.543 55.673 36.543 L 55.673 36.543 L 55.673 36.543 Q 55.79 36.543 55.942 36.569 L 55.942 36.569 L 55.942 36.569 Q 56.095 36.596 56.153 36.625 L 56.153 36.625 L 56.153 36.625 Z " fill-rule="evenodd" fill="rgb(1,35,149)"/></g><g id="baseline-calendar_today-24px"><path d=" M 41 11 L 40 11 L 40 9 L 38 9 L 38 11 L 28 11 L 28 9 L 26 9 L 26 11 L 25 11 C 23.897 11.003 23.003 11.897 23 13 L 23 29 C 23.003 30.103 23.897 30.997 25 31 L 41 31 C 42.103 30.997 42.997 30.103 43 29 L 43 13 C 42.997 11.897 42.103 11.003 41 11 L 41 11 Z  M 41 29 L 25 29 L 25 16 L 41 16 L 41 29 Z " fill="rgb(1,35,149)"/><path d=" M 21 8 L 45 8 L 45 32 L 21 32 L 21 8 Z " fill="none"/></g><rect x="27" y="18" width="2" height="2" transform="matrix(1,0,0,1,0,0)" fill="rgb(1,35,149)"/><rect x="32" y="18" width="2" height="2" transform="matrix(1,0,0,1,0,0)" fill="rgb(1,35,149)"/><rect x="37" y="18" width="2" height="2" transform="matrix(1,0,0,1,0,0)" fill="rgb(1,35,149)"/></g></g></g></svg>