<svg xmlns="http://www.w3.org/2000/svg" xmlns:xlink="http://www.w3.org/1999/xlink" width="375" height="338" viewBox="0 0 375 338">
  <defs>
    <clipPath id="clip-card_stencil">
      <rect width="375" height="338"/>
    </clipPath>
  </defs>
  <g id="card_stencil" data-name="card stencil" clip-path="url(#clip-card_stencil)">
    <rect id="Rectangle_29" data-name="Rectangle 29" width="375" height="340" fill="#f7f7ff"/>
    <rect id="Rectangle_30" data-name="Rectangle 30" width="375" height="340" fill="#fff"/>
    <rect id="Rectangle_31" data-name="Rectangle 31" width="375" height="340" fill="#d2deff"/>
    <path id="snowflake" d="M114.611,82.7l-11.942-6.895,10.349-6.1a4.012,4.012,0,0,0-4.076-6.912L94.686,71.2,73.191,58.789,94.682,46.381l14.26,8.405a4.013,4.013,0,0,0,4.074-6.914l-10.351-6.1,11.945-6.9a4.012,4.012,0,0,0-4.012-6.949l-11.942,6.9L98.548,22.8a4.012,4.012,0,0,0-8.024.072l.149,16.553L69.179,51.839V27.022L83.59,18.877a4.012,4.012,0,1,0-3.949-6.986L69.179,17.8V4.012a4.012,4.012,0,0,0-8.025,0V17.8L50.693,11.892a4.012,4.012,0,0,0-3.949,6.986l14.41,8.145V51.839L39.66,39.43l.149-16.553a4.012,4.012,0,0,0-3.976-4.048H35.8a4.012,4.012,0,0,0-4.011,3.976l-.109,12.016-11.942-6.9a4.012,4.012,0,1,0-4.012,6.949l11.944,6.9-10.352,6.1a4.013,4.013,0,1,0,4.075,6.914l14.262-8.405L57.143,58.79,35.647,71.2,21.389,62.793A4.012,4.012,0,1,0,17.313,69.7l10.351,6.1L15.722,82.7a4.012,4.012,0,1,0,4.012,6.949l11.942-6.9.109,12.017A4.013,4.013,0,0,0,35.8,98.75h.037A4.012,4.012,0,0,0,39.809,94.7L39.66,78.148l21.494-12.41V90.556L46.744,98.7a4.012,4.012,0,1,0,3.949,6.986l10.462-5.913v13.792a4.012,4.012,0,0,0,8.025,0V99.774l10.462,5.913A4.012,4.012,0,0,0,83.59,98.7L69.179,90.556V65.738L90.673,78.148,90.52,94.7A4.012,4.012,0,0,0,94.5,98.75h.038a4.013,4.013,0,0,0,4.011-3.975l.111-12.018,11.944,6.9a4.012,4.012,0,1,0,4.012-6.949Z" transform="translate(219.732 228)" fill="#fff"/>
    <path id="snowflake-2" data-name="snowflake" d="M114.611,82.7l-11.942-6.895,10.349-6.1a4.012,4.012,0,0,0-4.076-6.912L94.686,71.2,73.191,58.789,94.682,46.381l14.26,8.405a4.013,4.013,0,0,0,4.074-6.914l-10.351-6.1,11.945-6.9a4.012,4.012,0,0,0-4.012-6.949l-11.942,6.9L98.548,22.8a4.012,4.012,0,0,0-8.024.072l.149,16.553L69.179,51.839V27.022L83.59,18.877a4.012,4.012,0,1,0-3.949-6.986L69.179,17.8V4.012a4.012,4.012,0,0,0-8.025,0V17.8L50.693,11.892a4.012,4.012,0,0,0-3.949,6.986l14.41,8.145V51.839L39.66,39.43l.149-16.553a4.012,4.012,0,0,0-3.976-4.048H35.8a4.012,4.012,0,0,0-4.011,3.976l-.109,12.016-11.942-6.9a4.012,4.012,0,1,0-4.012,6.949l11.944,6.9-10.352,6.1a4.013,4.013,0,1,0,4.075,6.914l14.262-8.405L57.143,58.79,35.647,71.2,21.389,62.793A4.012,4.012,0,1,0,17.313,69.7l10.351,6.1L15.722,82.7a4.012,4.012,0,1,0,4.012,6.949l11.942-6.9.109,12.017A4.013,4.013,0,0,0,35.8,98.75h.037A4.012,4.012,0,0,0,39.809,94.7L39.66,78.148l21.494-12.41V90.556L46.744,98.7a4.012,4.012,0,1,0,3.949,6.986l10.462-5.913v13.792a4.012,4.012,0,0,0,8.025,0V99.774l10.462,5.913A4.012,4.012,0,0,0,83.59,98.7L69.179,90.556V65.738L90.673,78.148,90.52,94.7A4.012,4.012,0,0,0,94.5,98.75h.038a4.013,4.013,0,0,0,4.011-3.975l.111-12.018,11.944,6.9a4.012,4.012,0,1,0,4.012-6.949Z" transform="translate(243.732 -43)" fill="#fff"/>
    <path id="snowflake-3" data-name="snowflake" d="M114.611,82.7l-11.942-6.895,10.349-6.1a4.012,4.012,0,0,0-4.076-6.912L94.686,71.2,73.191,58.789,94.682,46.381l14.26,8.405a4.013,4.013,0,0,0,4.074-6.914l-10.351-6.1,11.945-6.9a4.012,4.012,0,0,0-4.012-6.949l-11.942,6.9L98.548,22.8a4.012,4.012,0,0,0-8.024.072l.149,16.553L69.179,51.839V27.022L83.59,18.877a4.012,4.012,0,1,0-3.949-6.986L69.179,17.8V4.012a4.012,4.012,0,0,0-8.025,0V17.8L50.693,11.892a4.012,4.012,0,0,0-3.949,6.986l14.41,8.145V51.839L39.66,39.43l.149-16.553a4.012,4.012,0,0,0-3.976-4.048H35.8a4.012,4.012,0,0,0-4.011,3.976l-.109,12.016-11.942-6.9a4.012,4.012,0,1,0-4.012,6.949l11.944,6.9-10.352,6.1a4.013,4.013,0,1,0,4.075,6.914l14.262-8.405L57.143,58.79,35.647,71.2,21.389,62.793A4.012,4.012,0,1,0,17.313,69.7l10.351,6.1L15.722,82.7a4.012,4.012,0,1,0,4.012,6.949l11.942-6.9.109,12.017A4.013,4.013,0,0,0,35.8,98.75h.037A4.012,4.012,0,0,0,39.809,94.7L39.66,78.148l21.494-12.41V90.556L46.744,98.7a4.012,4.012,0,1,0,3.949,6.986l10.462-5.913v13.792a4.012,4.012,0,0,0,8.025,0V99.774l10.462,5.913A4.012,4.012,0,0,0,83.59,98.7L69.179,90.556V65.738L90.673,78.148,90.52,94.7A4.012,4.012,0,0,0,94.5,98.75h.038a4.013,4.013,0,0,0,4.011-3.975l.111-12.018,11.944,6.9a4.012,4.012,0,1,0,4.012-6.949Z" transform="translate(-40.268 234)" fill="#fff"/>
  </g>
</svg>
