<svg xmlns="http://www.w3.org/2000/svg" xmlns:xlink="http://www.w3.org/1999/xlink" width="375" height="812" viewBox="0 0 375 812">
  <defs>
    <clipPath id="clip-christmastencel_inverted">
      <rect width="375" height="812"/>
    </clipPath>
  </defs>
  <g id="christmastencel_inverted" data-name="christmastencel inverted" clip-path="url(#clip-christmastencel_inverted)">
    <rect width="375" height="812" fill="#fff"/>
    <path id="snowflake" d="M138.092,101.949l-14.721-8.5,12.758-7.523a4.946,4.946,0,0,0-5.025-8.521L113.529,87.768l-26.5-15.3,26.492-15.3L131.1,67.535a4.946,4.946,0,0,0,5.023-8.523l-12.76-7.52,14.725-8.5a4.946,4.946,0,0,0-4.946-8.567l-14.721,8.5-.134-14.813a4.946,4.946,0,0,0-9.891.089l.184,20.4-26.5,15.3V33.31L99.851,23.27a4.946,4.946,0,1,0-4.868-8.612l-12.9,7.289v-17a4.946,4.946,0,0,0-9.892,0v17L59.3,14.659a4.946,4.946,0,0,0-4.868,8.612l17.764,10.04V63.9l-26.5-15.3.184-20.4a4.945,4.945,0,0,0-4.9-4.99h-.046a4.946,4.946,0,0,0-4.945,4.9l-.134,14.812-14.722-8.5a4.946,4.946,0,1,0-4.946,8.567l14.724,8.5L18.152,59.013a4.947,4.947,0,1,0,5.023,8.523L40.756,57.175l26.493,15.3-26.5,15.3L23.175,77.405a4.946,4.946,0,1,0-5.025,8.52l12.76,7.523-14.721,8.5a4.946,4.946,0,1,0,4.946,8.567l14.721-8.5.134,14.813a4.946,4.946,0,0,0,4.945,4.9h.046a4.945,4.945,0,0,0,4.9-4.99L45.7,96.334l26.5-15.3V111.63L54.43,121.669a4.946,4.946,0,1,0,4.868,8.612l12.9-7.289v17a4.946,4.946,0,0,0,9.892,0v-17l12.9,7.289a4.946,4.946,0,0,0,4.868-8.612L82.087,111.63V81.036l26.5,15.3-.189,20.4a4.945,4.945,0,0,0,4.9,4.992h.047a4.947,4.947,0,0,0,4.945-4.9l.137-14.815,14.723,8.5a4.946,4.946,0,1,0,4.945-8.567Z" transform="translate(251.785 27)" fill="#efefef"/>
    <path id="snowflake-2" data-name="snowflake" d="M138.092,101.949l-14.721-8.5,12.758-7.523a4.946,4.946,0,0,0-5.025-8.521L113.529,87.768l-26.5-15.3,26.492-15.3L131.1,67.535a4.946,4.946,0,0,0,5.023-8.523l-12.76-7.52,14.725-8.5a4.946,4.946,0,0,0-4.946-8.567l-14.721,8.5-.134-14.813a4.946,4.946,0,0,0-9.891.089l.184,20.4-26.5,15.3V33.31L99.851,23.27a4.946,4.946,0,1,0-4.868-8.612l-12.9,7.289v-17a4.946,4.946,0,0,0-9.892,0v17L59.3,14.659a4.946,4.946,0,0,0-4.868,8.612l17.764,10.04V63.9l-26.5-15.3.184-20.4a4.945,4.945,0,0,0-4.9-4.99h-.046a4.946,4.946,0,0,0-4.945,4.9l-.134,14.812-14.722-8.5a4.946,4.946,0,1,0-4.946,8.567l14.724,8.5L18.152,59.013a4.947,4.947,0,1,0,5.023,8.523L40.756,57.175l26.493,15.3-26.5,15.3L23.175,77.405a4.946,4.946,0,1,0-5.025,8.52l12.76,7.523-14.721,8.5a4.946,4.946,0,1,0,4.946,8.567l14.721-8.5.134,14.813a4.946,4.946,0,0,0,4.945,4.9h.046a4.945,4.945,0,0,0,4.9-4.99L45.7,96.334l26.5-15.3V111.63L54.43,121.669a4.946,4.946,0,1,0,4.868,8.612l12.9-7.289v17a4.946,4.946,0,0,0,9.892,0v-17l12.9,7.289a4.946,4.946,0,0,0,4.868-8.612L82.087,111.63V81.036l26.5,15.3-.189,20.4a4.945,4.945,0,0,0,4.9,4.992h.047a4.947,4.947,0,0,0,4.945-4.9l.137-14.815,14.723,8.5a4.946,4.946,0,1,0,4.945-8.567Z" transform="translate(-37.215 570)" fill="#efefef"/>
    <path id="snowflake-3" data-name="snowflake" d="M138.092,101.949l-14.721-8.5,12.758-7.523a4.946,4.946,0,0,0-5.025-8.521L113.529,87.768l-26.5-15.3,26.492-15.3L131.1,67.535a4.946,4.946,0,0,0,5.023-8.523l-12.76-7.52,14.725-8.5a4.946,4.946,0,0,0-4.946-8.567l-14.721,8.5-.134-14.813a4.946,4.946,0,0,0-9.891.089l.184,20.4-26.5,15.3V33.31L99.851,23.27a4.946,4.946,0,1,0-4.868-8.612l-12.9,7.289v-17a4.946,4.946,0,0,0-9.892,0v17L59.3,14.659a4.946,4.946,0,0,0-4.868,8.612l17.764,10.04V63.9l-26.5-15.3.184-20.4a4.945,4.945,0,0,0-4.9-4.99h-.046a4.946,4.946,0,0,0-4.945,4.9l-.134,14.812-14.722-8.5a4.946,4.946,0,1,0-4.946,8.567l14.724,8.5L18.152,59.013a4.947,4.947,0,1,0,5.023,8.523L40.756,57.175l26.493,15.3-26.5,15.3L23.175,77.405a4.946,4.946,0,1,0-5.025,8.52l12.76,7.523-14.721,8.5a4.946,4.946,0,1,0,4.946,8.567l14.721-8.5.134,14.813a4.946,4.946,0,0,0,4.945,4.9h.046a4.945,4.945,0,0,0,4.9-4.99L45.7,96.334l26.5-15.3V111.63L54.43,121.669a4.946,4.946,0,1,0,4.868,8.612l12.9-7.289v17a4.946,4.946,0,0,0,9.892,0v-17l12.9,7.289a4.946,4.946,0,0,0,4.868-8.612L82.087,111.63V81.036l26.5,15.3-.189,20.4a4.945,4.945,0,0,0,4.9,4.992h.047a4.947,4.947,0,0,0,4.945-4.9l.137-14.815,14.723,8.5a4.946,4.946,0,1,0,4.945-8.567Z" transform="translate(251.785 27)" fill="#efefef"/>
    <path id="snowflake-4" data-name="snowflake" d="M138.092,101.949l-14.721-8.5,12.758-7.523a4.946,4.946,0,0,0-5.025-8.521L113.529,87.768l-26.5-15.3,26.492-15.3L131.1,67.535a4.946,4.946,0,0,0,5.023-8.523l-12.76-7.52,14.725-8.5a4.946,4.946,0,0,0-4.946-8.567l-14.721,8.5-.134-14.813a4.946,4.946,0,0,0-9.891.089l.184,20.4-26.5,15.3V33.31L99.851,23.27a4.946,4.946,0,1,0-4.868-8.612l-12.9,7.289v-17a4.946,4.946,0,0,0-9.892,0v17L59.3,14.659a4.946,4.946,0,0,0-4.868,8.612l17.764,10.04V63.9l-26.5-15.3.184-20.4a4.945,4.945,0,0,0-4.9-4.99h-.046a4.946,4.946,0,0,0-4.945,4.9l-.134,14.812-14.722-8.5a4.946,4.946,0,1,0-4.946,8.567l14.724,8.5L18.152,59.013a4.947,4.947,0,1,0,5.023,8.523L40.756,57.175l26.493,15.3-26.5,15.3L23.175,77.405a4.946,4.946,0,1,0-5.025,8.52l12.76,7.523-14.721,8.5a4.946,4.946,0,1,0,4.946,8.567l14.721-8.5.134,14.813a4.946,4.946,0,0,0,4.945,4.9h.046a4.945,4.945,0,0,0,4.9-4.99L45.7,96.334l26.5-15.3V111.63L54.43,121.669a4.946,4.946,0,1,0,4.868,8.612l12.9-7.289v17a4.946,4.946,0,0,0,9.892,0v-17l12.9,7.289a4.946,4.946,0,0,0,4.868-8.612L82.087,111.63V81.036l26.5,15.3-.189,20.4a4.945,4.945,0,0,0,4.9,4.992h.047a4.947,4.947,0,0,0,4.945-4.9l.137-14.815,14.723,8.5a4.946,4.946,0,1,0,4.945-8.567Z" transform="translate(-46.215 99)" fill="#efefef"/>
    <path id="snowflake-5" data-name="snowflake" d="M138.092,101.949l-14.721-8.5,12.758-7.523a4.946,4.946,0,0,0-5.025-8.521L113.529,87.768l-26.5-15.3,26.492-15.3L131.1,67.535a4.946,4.946,0,0,0,5.023-8.523l-12.76-7.52,14.725-8.5a4.946,4.946,0,0,0-4.946-8.567l-14.721,8.5-.134-14.813a4.946,4.946,0,0,0-9.891.089l.184,20.4-26.5,15.3V33.31L99.851,23.27a4.946,4.946,0,1,0-4.868-8.612l-12.9,7.289v-17a4.946,4.946,0,0,0-9.892,0v17L59.3,14.659a4.946,4.946,0,0,0-4.868,8.612l17.764,10.04V63.9l-26.5-15.3.184-20.4a4.945,4.945,0,0,0-4.9-4.99h-.046a4.946,4.946,0,0,0-4.945,4.9l-.134,14.812-14.722-8.5a4.946,4.946,0,1,0-4.946,8.567l14.724,8.5L18.152,59.013a4.947,4.947,0,1,0,5.023,8.523L40.756,57.175l26.493,15.3-26.5,15.3L23.175,77.405a4.946,4.946,0,1,0-5.025,8.52l12.76,7.523-14.721,8.5a4.946,4.946,0,1,0,4.946,8.567l14.721-8.5.134,14.813a4.946,4.946,0,0,0,4.945,4.9h.046a4.945,4.945,0,0,0,4.9-4.99L45.7,96.334l26.5-15.3V111.63L54.43,121.669a4.946,4.946,0,1,0,4.868,8.612l12.9-7.289v17a4.946,4.946,0,0,0,9.892,0v-17l12.9,7.289a4.946,4.946,0,0,0,4.868-8.612L82.087,111.63V81.036l26.5,15.3-.189,20.4a4.945,4.945,0,0,0,4.9,4.992h.047a4.947,4.947,0,0,0,4.945-4.9l.137-14.815,14.723,8.5a4.946,4.946,0,1,0,4.945-8.567Z" transform="translate(184.785 349)" fill="#efefef"/>
    <path id="snowflake-6" data-name="snowflake" d="M138.092,101.949l-14.721-8.5,12.758-7.523a4.946,4.946,0,0,0-5.025-8.521L113.529,87.768l-26.5-15.3,26.492-15.3L131.1,67.535a4.946,4.946,0,0,0,5.023-8.523l-12.76-7.52,14.725-8.5a4.946,4.946,0,0,0-4.946-8.567l-14.721,8.5-.134-14.813a4.946,4.946,0,0,0-9.891.089l.184,20.4-26.5,15.3V33.31L99.851,23.27a4.946,4.946,0,1,0-4.868-8.612l-12.9,7.289v-17a4.946,4.946,0,0,0-9.892,0v17L59.3,14.659a4.946,4.946,0,0,0-4.868,8.612l17.764,10.04V63.9l-26.5-15.3.184-20.4a4.945,4.945,0,0,0-4.9-4.99h-.046a4.946,4.946,0,0,0-4.945,4.9l-.134,14.812-14.722-8.5a4.946,4.946,0,1,0-4.946,8.567l14.724,8.5L18.152,59.013a4.947,4.947,0,1,0,5.023,8.523L40.756,57.175l26.493,15.3-26.5,15.3L23.175,77.405a4.946,4.946,0,1,0-5.025,8.52l12.76,7.523-14.721,8.5a4.946,4.946,0,1,0,4.946,8.567l14.721-8.5.134,14.813a4.946,4.946,0,0,0,4.945,4.9h.046a4.945,4.945,0,0,0,4.9-4.99L45.7,96.334l26.5-15.3V111.63L54.43,121.669a4.946,4.946,0,1,0,4.868,8.612l12.9-7.289v17a4.946,4.946,0,0,0,9.892,0v-17l12.9,7.289a4.946,4.946,0,0,0,4.868-8.612L82.087,111.63V81.036l26.5,15.3-.189,20.4a4.945,4.945,0,0,0,4.9,4.992h.047a4.947,4.947,0,0,0,4.945-4.9l.137-14.815,14.723,8.5a4.946,4.946,0,1,0,4.945-8.567Z" transform="translate(-37.215 570)" fill="#efefef"/>
  </g>
</svg>
