<?xml version="1.0" standalone="no"?><!-- Generator: Gravit.io --><svg xmlns="http://www.w3.org/2000/svg" xmlns:xlink="http://www.w3.org/1999/xlink" style="isolation:isolate" viewBox="0 0 65 55" width="65" height="55"><defs><clipPath id="_clipPath_Fm0miGvbRq23e6bIvgKZYjiaEcH4v6FZ"><rect width="65" height="55"/></clipPath></defs><g clip-path="url(#_clipPath_Fm0miGvbRq23e6bIvgKZYjiaEcH4v6FZ)"><clipPath id="_clipPath_sRpHewJKNEAw4d0yHIHkH2pFyU4erKUn"><rect x="0" y="0" width="65" height="55" transform="matrix(1,0,0,1,0,0)" fill="rgb(255,255,255)"/></clipPath><g clip-path="url(#_clipPath_sRpHewJKNEAw4d0yHIHkH2pFyU4erKUn)"><g id="Grades"><rect x="0" y="0" width="65" height="55" transform="matrix(1,0,0,1,0,0)" fill="none"/><g id="Group_425"><path d=" M 20.869 38.752 L 20.869 41.881 L 20.869 41.881 Q 20.746 42.057 20.529 42.271 L 20.529 42.271 L 20.529 42.271 Q 20.312 42.484 19.958 42.672 L 19.958 42.672 L 19.958 42.672 Q 19.603 42.859 19.088 42.988 L 19.088 42.988 L 19.088 42.988 Q 18.572 43.117 17.851 43.117 L 17.851 43.117 L 17.851 43.117 Q 17.072 43.117 16.419 42.842 L 16.419 42.842 L 16.419 42.842 Q 15.766 42.566 15.294 42.048 L 15.294 42.048 L 15.294 42.048 Q 14.822 41.529 14.559 40.776 L 14.559 40.776 L 14.559 40.776 Q 14.295 40.023 14.295 39.068 L 14.295 39.068 L 14.295 38.4 L 14.295 38.4 Q 14.295 37.445 14.52 36.695 L 14.52 36.695 L 14.52 36.695 Q 14.746 35.945 15.183 35.424 L 15.183 35.424 L 15.183 35.424 Q 15.619 34.902 16.258 34.627 L 16.258 34.627 L 16.258 34.627 Q 16.896 34.352 17.723 34.352 L 17.723 34.352 L 17.723 34.352 Q 18.455 34.352 19.006 34.548 L 19.006 34.548 L 19.006 34.548 Q 19.557 34.744 19.943 35.093 L 19.943 35.093 L 19.943 35.093 Q 20.33 35.441 20.559 35.922 L 20.559 35.922 L 20.559 35.922 Q 20.787 36.402 20.869 36.971 L 20.869 36.971 L 19.744 36.971 L 19.744 36.971 Q 19.68 36.625 19.542 36.317 L 19.542 36.317 L 19.542 36.317 Q 19.404 36.01 19.164 35.778 L 19.164 35.778 L 19.164 35.778 Q 18.924 35.547 18.572 35.412 L 18.572 35.412 L 18.572 35.412 Q 18.221 35.277 17.728 35.277 L 17.728 35.277 L 17.728 35.277 Q 17.131 35.277 16.697 35.494 L 16.697 35.494 L 16.697 35.494 Q 16.264 35.711 15.982 36.115 L 15.982 36.115 L 15.982 36.115 Q 15.701 36.52 15.563 37.094 L 15.563 37.094 L 15.563 37.094 Q 15.426 37.668 15.426 38.389 L 15.426 38.389 L 15.426 39.068 L 15.426 39.068 Q 15.426 39.807 15.601 40.387 L 15.601 40.387 L 15.601 40.387 Q 15.777 40.967 16.097 41.371 L 16.097 41.371 L 16.097 41.371 Q 16.416 41.775 16.864 41.986 L 16.864 41.986 L 16.864 41.986 Q 17.312 42.197 17.857 42.197 L 17.857 42.197 L 17.857 42.197 Q 18.314 42.197 18.634 42.136 L 18.634 42.136 L 18.634 42.136 Q 18.953 42.074 19.173 41.983 L 19.173 41.983 L 19.173 41.983 Q 19.392 41.893 19.527 41.784 L 19.527 41.784 L 19.527 41.784 Q 19.662 41.676 19.75 41.582 L 19.75 41.582 L 19.75 39.666 L 17.775 39.666 L 17.775 38.752 L 20.869 38.752 L 20.869 38.752 Z  M 25.639 36.625 L 25.639 37.633 L 25.639 37.633 Q 25.498 37.609 25.378 37.601 L 25.378 37.601 L 25.378 37.601 Q 25.258 37.592 25.105 37.592 L 25.105 37.592 L 25.105 37.592 Q 24.543 37.592 24.188 37.838 L 24.188 37.838 L 24.188 37.838 Q 23.834 38.084 23.658 38.5 L 23.658 38.5 L 23.658 43 L 22.574 43 L 22.574 36.66 L 23.629 36.66 L 23.646 37.393 L 23.646 37.393 Q 23.892 37 24.262 36.771 L 24.262 36.771 L 24.262 36.771 Q 24.631 36.543 25.158 36.543 L 25.158 36.543 L 25.158 36.543 Q 25.275 36.543 25.428 36.569 L 25.428 36.569 L 25.428 36.569 Q 25.58 36.596 25.639 36.625 L 25.639 36.625 L 25.639 36.625 Z  M 31.685 43 L 30.549 43 L 30.549 43 Q 30.49 42.883 30.455 42.704 L 30.455 42.704 L 30.455 42.704 Q 30.42 42.525 30.396 42.332 L 30.396 42.332 L 30.396 42.332 Q 30.244 42.49 30.054 42.634 L 30.054 42.634 L 30.054 42.634 Q 29.863 42.777 29.638 42.886 L 29.638 42.886 L 29.638 42.886 Q 29.412 42.994 29.148 43.056 L 29.148 43.056 L 29.148 43.056 Q 28.885 43.117 28.592 43.117 L 28.592 43.117 L 28.592 43.117 Q 28.105 43.117 27.71 42.971 L 27.71 42.971 L 27.71 42.971 Q 27.314 42.824 27.036 42.572 L 27.036 42.572 L 27.036 42.572 Q 26.758 42.32 26.605 41.978 L 26.605 41.978 L 26.605 41.978 Q 26.453 41.635 26.453 41.242 L 26.453 41.242 L 26.453 41.242 Q 26.453 40.732 26.652 40.343 L 26.652 40.343 L 26.652 40.343 Q 26.851 39.953 27.224 39.689 L 27.224 39.689 L 27.224 39.689 Q 27.596 39.426 28.123 39.291 L 28.123 39.291 L 28.123 39.291 Q 28.65 39.156 29.301 39.156 L 29.301 39.156 L 30.379 39.156 L 30.379 38.658 L 30.379 38.658 Q 30.379 38.09 30.039 37.753 L 30.039 37.753 L 30.039 37.753 Q 29.699 37.416 29.037 37.416 L 29.037 37.416 L 29.037 37.416 Q 28.732 37.416 28.48 37.498 L 28.48 37.498 L 28.48 37.498 Q 28.228 37.58 28.05 37.718 L 28.05 37.718 L 28.05 37.718 Q 27.871 37.855 27.771 38.037 L 27.771 38.037 L 27.771 38.037 Q 27.672 38.219 27.672 38.418 L 27.672 38.418 L 26.582 38.418 L 26.582 38.418 Q 26.582 38.078 26.761 37.744 L 26.761 37.744 L 26.761 37.744 Q 26.939 37.41 27.267 37.144 L 27.267 37.144 L 27.267 37.144 Q 27.596 36.877 28.061 36.71 L 28.061 36.71 L 28.061 36.71 Q 28.527 36.543 29.101 36.543 L 29.101 36.543 L 29.101 36.543 Q 29.617 36.543 30.054 36.675 L 30.054 36.675 L 30.054 36.675 Q 30.49 36.807 30.801 37.073 L 30.801 37.073 L 30.801 37.073 Q 31.111 37.34 31.287 37.738 L 31.287 37.738 L 31.287 37.738 Q 31.463 38.137 31.463 38.67 L 31.463 38.67 L 31.463 41.617 L 31.463 41.617 Q 31.463 41.939 31.518 42.294 L 31.518 42.294 L 31.518 42.294 Q 31.574 42.648 31.685 42.906 L 31.685 42.906 L 31.685 43 L 31.685 43 Z  M 28.75 42.174 L 28.75 42.174 L 28.75 42.174 Q 29.043 42.174 29.301 42.092 L 29.301 42.092 L 29.301 42.092 Q 29.559 42.01 29.769 41.878 L 29.769 41.878 L 29.769 41.878 Q 29.98 41.746 30.136 41.576 L 30.136 41.576 L 30.136 41.576 Q 30.291 41.406 30.379 41.225 L 30.379 41.225 L 30.379 39.924 L 29.476 39.924 L 29.476 39.924 Q 28.545 39.924 28.041 40.214 L 28.041 40.214 L 28.041 40.214 Q 27.537 40.504 27.537 41.09 L 27.537 41.09 L 27.537 41.09 Q 27.537 41.318 27.613 41.518 L 27.613 41.518 L 27.613 41.518 Q 27.689 41.717 27.845 41.86 L 27.845 41.86 L 27.845 41.86 Q 28 42.004 28.226 42.089 L 28.226 42.089 L 28.226 42.089 Q 28.451 42.174 28.75 42.174 Z  M 32.898 39.9 L 32.898 39.777 L 32.898 39.777 Q 32.898 39.051 33.077 38.456 L 33.077 38.456 L 33.077 38.456 Q 33.256 37.861 33.584 37.437 L 33.584 37.437 L 33.584 37.437 Q 33.912 37.012 34.372 36.777 L 34.372 36.777 L 34.372 36.777 Q 34.832 36.543 35.4 36.543 L 35.4 36.543 L 35.4 36.543 Q 35.98 36.543 36.414 36.739 L 36.414 36.739 L 36.414 36.739 Q 36.848 36.936 37.164 37.305 L 37.164 37.305 L 37.164 34 L 38.248 34 L 38.248 43 L 37.252 43 L 37.199 42.32 L 37.199 42.32 Q 36.883 42.707 36.437 42.912 L 36.437 42.912 L 36.437 42.912 Q 35.992 43.117 35.389 43.117 L 35.389 43.117 L 35.389 43.117 Q 34.832 43.117 34.372 42.877 L 34.372 42.877 L 34.372 42.877 Q 33.912 42.637 33.584 42.206 L 33.584 42.206 L 33.584 42.206 Q 33.256 41.775 33.077 41.187 L 33.077 41.187 L 33.077 41.187 Q 32.898 40.598 32.898 39.9 L 32.898 39.9 L 32.898 39.9 Z  M 33.982 39.777 L 33.982 39.9 L 33.982 39.9 Q 33.982 40.375 34.079 40.794 L 34.079 40.794 L 34.079 40.794 Q 34.176 41.213 34.381 41.523 L 34.381 41.523 L 34.381 41.523 Q 34.586 41.834 34.902 42.016 L 34.902 42.016 L 34.902 42.016 Q 35.219 42.197 35.658 42.197 L 35.658 42.197 L 35.658 42.197 Q 35.945 42.197 36.174 42.13 L 36.174 42.13 L 36.174 42.13 Q 36.402 42.063 36.587 41.939 L 36.587 41.939 L 36.587 41.939 Q 36.771 41.816 36.915 41.646 L 36.915 41.646 L 36.915 41.646 Q 37.059 41.477 37.164 41.271 L 37.164 41.271 L 37.164 38.359 L 37.164 38.359 Q 37.059 38.166 36.918 38.002 L 36.918 38.002 L 36.918 38.002 Q 36.777 37.838 36.593 37.718 L 36.593 37.718 L 36.593 37.718 Q 36.408 37.598 36.18 37.53 L 36.18 37.53 L 36.18 37.53 Q 35.951 37.463 35.67 37.463 L 35.67 37.463 L 35.67 37.463 Q 35.225 37.463 34.905 37.647 L 34.905 37.647 L 34.905 37.647 Q 34.586 37.832 34.381 38.148 L 34.381 38.148 L 34.381 38.148 Q 34.176 38.465 34.079 38.884 L 34.079 38.884 L 34.079 38.884 Q 33.982 39.303 33.982 39.777 L 33.982 39.777 L 33.982 39.777 Z  M 42.56 43.117 L 42.56 43.117 L 42.56 43.117 Q 41.898 43.117 41.362 42.889 L 41.362 42.889 L 41.362 42.889 Q 40.826 42.66 40.445 42.253 L 40.445 42.253 L 40.445 42.253 Q 40.064 41.846 39.859 41.283 L 39.859 41.283 L 39.859 41.283 Q 39.654 40.721 39.654 40.053 L 39.654 40.053 L 39.654 39.807 L 39.654 39.807 Q 39.654 39.033 39.886 38.424 L 39.886 38.424 L 39.886 38.424 Q 40.117 37.814 40.504 37.398 L 40.504 37.398 L 40.504 37.398 Q 40.891 36.982 41.389 36.763 L 41.389 36.763 L 41.389 36.763 Q 41.887 36.543 42.426 36.543 L 42.426 36.543 L 42.426 36.543 Q 43.105 36.543 43.598 36.78 L 43.598 36.78 L 43.598 36.78 Q 44.09 37.018 44.409 37.434 L 44.409 37.434 L 44.409 37.434 Q 44.728 37.85 44.881 38.418 L 44.881 38.418 L 44.881 38.418 Q 45.033 38.986 45.033 39.654 L 45.033 39.654 L 45.033 40.141 L 40.738 40.141 L 40.738 40.141 Q 40.75 40.58 40.882 40.961 L 40.882 40.961 L 40.882 40.961 Q 41.014 41.342 41.257 41.623 L 41.257 41.623 L 41.257 41.623 Q 41.5 41.904 41.843 42.068 L 41.843 42.068 L 41.843 42.068 Q 42.185 42.232 42.619 42.232 L 42.619 42.232 L 42.619 42.232 Q 43.193 42.232 43.592 41.998 L 43.592 41.998 L 43.592 41.998 Q 43.99 41.764 44.289 41.377 L 44.289 41.377 L 44.951 41.893 L 44.951 41.893 Q 44.799 42.127 44.582 42.347 L 44.582 42.347 L 44.582 42.347 Q 44.365 42.566 44.075 42.739 L 44.075 42.739 L 44.075 42.739 Q 43.785 42.912 43.41 43.015 L 43.41 43.015 L 43.41 43.015 Q 43.035 43.117 42.56 43.117 Z  M 42.426 37.434 L 42.426 37.434 L 42.426 37.434 Q 42.098 37.434 41.822 37.554 L 41.822 37.554 L 41.822 37.554 Q 41.547 37.674 41.33 37.902 L 41.33 37.902 L 41.33 37.902 Q 41.113 38.131 40.97 38.471 L 40.97 38.471 L 40.97 38.471 Q 40.826 38.811 40.773 39.25 L 40.773 39.25 L 43.949 39.25 L 43.949 39.168 L 43.949 39.168 Q 43.932 38.852 43.847 38.541 L 43.847 38.541 L 43.847 38.541 Q 43.762 38.23 43.583 37.984 L 43.583 37.984 L 43.583 37.984 Q 43.404 37.738 43.123 37.586 L 43.123 37.586 L 43.123 37.586 Q 42.842 37.434 42.426 37.434 Z  M 49.978 41.318 L 49.978 41.318 L 49.978 41.318 Q 49.978 41.143 49.926 40.987 L 49.926 40.987 L 49.926 40.987 Q 49.873 40.832 49.718 40.694 L 49.718 40.694 L 49.718 40.694 Q 49.562 40.557 49.275 40.439 L 49.275 40.439 L 49.275 40.439 Q 48.988 40.322 48.519 40.223 L 48.519 40.223 L 48.519 40.223 Q 47.992 40.111 47.57 39.959 L 47.57 39.959 L 47.57 39.959 Q 47.148 39.807 46.852 39.593 L 46.852 39.593 L 46.852 39.593 Q 46.557 39.379 46.398 39.086 L 46.398 39.086 L 46.398 39.086 Q 46.24 38.793 46.24 38.4 L 46.24 38.4 L 46.24 38.4 Q 46.24 38.025 46.407 37.688 L 46.407 37.688 L 46.407 37.688 Q 46.574 37.352 46.879 37.097 L 46.879 37.097 L 46.879 37.097 Q 47.184 36.842 47.617 36.692 L 47.617 36.692 L 47.617 36.692 Q 48.051 36.543 48.584 36.543 L 48.584 36.543 L 48.584 36.543 Q 49.152 36.543 49.601 36.698 L 49.601 36.698 L 49.601 36.698 Q 50.049 36.854 50.362 37.123 L 50.362 37.123 L 50.362 37.123 Q 50.676 37.393 50.84 37.753 L 50.84 37.753 L 50.84 37.753 Q 51.004 38.113 51.004 38.523 L 51.004 38.523 L 49.914 38.523 L 49.914 38.523 Q 49.914 38.33 49.826 38.134 L 49.826 38.134 L 49.826 38.134 Q 49.738 37.938 49.568 37.782 L 49.568 37.782 L 49.568 37.782 Q 49.398 37.627 49.152 37.53 L 49.152 37.53 L 49.152 37.53 Q 48.906 37.434 48.584 37.434 L 48.584 37.434 L 48.584 37.434 Q 48.244 37.434 48.007 37.513 L 48.007 37.513 L 48.007 37.513 Q 47.769 37.592 47.617 37.724 L 47.617 37.724 L 47.617 37.724 Q 47.465 37.855 47.394 38.022 L 47.394 38.022 L 47.394 38.022 Q 47.324 38.189 47.324 38.365 L 47.324 38.365 L 47.324 38.365 Q 47.324 38.541 47.383 38.682 L 47.383 38.682 L 47.383 38.682 Q 47.441 38.822 47.605 38.937 L 47.605 38.937 L 47.605 38.937 Q 47.769 39.051 48.054 39.147 L 48.054 39.147 L 48.054 39.147 Q 48.338 39.244 48.789 39.344 L 48.789 39.344 L 48.789 39.344 Q 49.369 39.479 49.797 39.648 L 49.797 39.648 L 49.797 39.648 Q 50.225 39.818 50.506 40.044 L 50.506 40.044 L 50.506 40.044 Q 50.787 40.27 50.925 40.563 L 50.925 40.563 L 50.925 40.563 Q 51.062 40.855 51.062 41.242 L 51.062 41.242 L 51.062 41.242 Q 51.062 41.658 50.89 42.004 L 50.89 42.004 L 50.89 42.004 Q 50.717 42.35 50.394 42.596 L 50.394 42.596 L 50.394 42.596 Q 50.072 42.842 49.621 42.979 L 49.621 42.979 L 49.621 42.979 Q 49.17 43.117 48.619 43.117 L 48.619 43.117 L 48.619 43.117 Q 47.986 43.117 47.503 42.941 L 47.503 42.941 L 47.503 42.941 Q 47.019 42.766 46.691 42.476 L 46.691 42.476 L 46.691 42.476 Q 46.363 42.186 46.193 41.813 L 46.193 41.813 L 46.193 41.813 Q 46.023 41.441 46.023 41.049 L 46.023 41.049 L 47.107 41.049 L 47.107 41.049 Q 47.125 41.383 47.268 41.608 L 47.268 41.608 L 47.268 41.608 Q 47.412 41.834 47.629 41.975 L 47.629 41.975 L 47.629 41.975 Q 47.846 42.115 48.103 42.174 L 48.103 42.174 L 48.103 42.174 Q 48.361 42.232 48.619 42.232 L 48.619 42.232 L 48.619 42.232 Q 48.953 42.232 49.205 42.162 L 49.205 42.162 L 49.205 42.162 Q 49.457 42.092 49.63 41.969 L 49.63 41.969 L 49.63 41.969 Q 49.803 41.846 49.891 41.679 L 49.891 41.679 L 49.891 41.679 Q 49.978 41.512 49.978 41.318 Z " fill-rule="evenodd" fill="rgb(1,35,149)"/></g><g id="outline-home-24px"><path d=" M 21 9 L 45 9 L 45 33 L 21 33 L 21 9 Z " fill="none"/></g><g id="outline-school-24px"><path d=" M 20 8 L 44 8 L 44 32 L 20 32 L 20 8 Z " fill="none"/><path d=" M 32 11 L 21 17 L 25 19.18 L 25 25.18 L 32 29 L 39 25.18 L 39 19.18 L 41 18.09 L 41 25 L 43 25 L 43 17 L 32 11 Z  M 38.82 17 L 32 20.72 L 25.18 17 L 32 13.28 L 38.82 17 Z  M 37 23.99 L 32 26.72 L 27 23.99 L 27 20.27 L 32 23 L 37 20.27 L 37 23.99 Z " fill="rgb(1,35,149)"/></g></g></g></g></svg>