<svg xmlns="http://www.w3.org/2000/svg" xmlns:xlink="http://www.w3.org/1999/xlink" width="65" height="55" viewBox="0 0 65 55">
  <defs>
    <clipPath id="clip-Grades">
      <rect width="65" height="55"/>
    </clipPath>
  </defs>
  <g id="Grades" clip-path="url(#clip-Grades)">
    <rect width="65" height="55" fill="rgba(255,255,255,0)"/>
    <g id="Group_425" data-name="Group 425" transform="translate(-144 -590)">
      <text id="Grades-2" data-name="Grades" transform="translate(144 622)" fill="#012395" font-size="12" font-family="Roboto-Regular, Roboto"><tspan x="13.58" y="11">Grades</tspan></text>
    </g>
    <g id="outline-home-24px" transform="translate(21 9)">
      <path id="Path_13" data-name="Path 13" d="M0,0H24V24H0Z" fill="none"/>
    </g>
    <g id="outline-school-24px" transform="translate(20 8)">
      <path id="Path_15" data-name="Path 15" d="M0,0H24V24H0Z" fill="none"/>
      <path id="Path_16" data-name="Path 16" d="M12,3,1,9l4,2.18v6L12,21l7-3.82v-6l2-1.09V17h2V9Zm6.82,6L12,12.72,5.18,9,12,5.28ZM17,15.99l-5,2.73L7,15.99V12.27L12,15l5-2.73v3.72Z" fill="#012395"/>
    </g>
  </g>
</svg>
