<?xml version="1.0" standalone="no"?><!-- Generator: Gravit.io --><svg xmlns="http://www.w3.org/2000/svg" xmlns:xlink="http://www.w3.org/1999/xlink" style="isolation:isolate" viewBox="0 0 65 55" width="65" height="55"><defs><clipPath id="_clipPath_3GF83ksuQSHFsO6hNvxm6M5BojfbNwXO"><rect width="65" height="55"/></clipPath></defs><g clip-path="url(#_clipPath_3GF83ksuQSHFsO6hNvxm6M5BojfbNwXO)"><clipPath id="_clipPath_oJ7o9ejR6Ranggo0jC9rCE8sTyfLMPN9"><rect x="0" y="0" width="65" height="55" transform="matrix(1,0,0,1,0,0)" fill="rgb(255,255,255)"/></clipPath><g clip-path="url(#_clipPath_oJ7o9ejR6Ranggo0jC9rCE8sTyfLMPN9)"><g id="Home"><rect x="0" y="0" width="65" height="55" transform="matrix(1,0,0,1,0,0)" fill="none"/><g id="Group_425"><path d=" M 23.547 34.469 L 23.547 43 L 22.416 43 L 22.416 39.057 L 18.115 39.057 L 18.115 43 L 16.99 43 L 16.99 34.469 L 18.115 34.469 L 18.115 38.137 L 22.416 38.137 L 22.416 34.469 L 23.547 34.469 L 23.547 34.469 Z  M 25.088 39.9 L 25.088 39.771 L 25.088 39.771 Q 25.088 39.08 25.29 38.491 L 25.29 38.491 L 25.29 38.491 Q 25.492 37.902 25.864 37.469 L 25.864 37.469 L 25.864 37.469 Q 26.236 37.035 26.77 36.789 L 26.77 36.789 L 26.77 36.789 Q 27.303 36.543 27.965 36.543 L 27.965 36.543 L 27.965 36.543 Q 28.639 36.543 29.175 36.789 L 29.175 36.789 L 29.175 36.789 Q 29.711 37.035 30.086 37.469 L 30.086 37.469 L 30.086 37.469 Q 30.461 37.902 30.66 38.491 L 30.66 38.491 L 30.66 38.491 Q 30.859 39.08 30.859 39.771 L 30.859 39.771 L 30.859 39.9 L 30.859 39.9 Q 30.859 40.592 30.66 41.181 L 30.66 41.181 L 30.66 41.181 Q 30.461 41.77 30.086 42.2 L 30.086 42.2 L 30.086 42.2 Q 29.711 42.631 29.178 42.874 L 29.178 42.874 L 29.178 42.874 Q 28.645 43.117 27.977 43.117 L 27.977 43.117 L 27.977 43.117 Q 27.309 43.117 26.775 42.874 L 26.775 42.874 L 26.775 42.874 Q 26.242 42.631 25.867 42.2 L 25.867 42.2 L 25.867 42.2 Q 25.492 41.77 25.29 41.181 L 25.29 41.181 L 25.29 41.181 Q 25.088 40.592 25.088 39.9 L 25.088 39.9 L 25.088 39.9 Z  M 26.178 39.771 L 26.178 39.9 L 26.178 39.9 Q 26.178 40.375 26.289 40.797 L 26.289 40.797 L 26.289 40.797 Q 26.4 41.219 26.626 41.538 L 26.626 41.538 L 26.626 41.538 Q 26.852 41.857 27.188 42.045 L 27.188 42.045 L 27.188 42.045 Q 27.525 42.232 27.977 42.232 L 27.977 42.232 L 27.977 42.232 Q 28.422 42.232 28.762 42.045 L 28.762 42.045 L 28.762 42.045 Q 29.102 41.857 29.324 41.538 L 29.324 41.538 L 29.324 41.538 Q 29.547 41.219 29.661 40.797 L 29.661 40.797 L 29.661 40.797 Q 29.775 40.375 29.775 39.9 L 29.775 39.9 L 29.775 39.771 L 29.775 39.771 Q 29.775 39.303 29.661 38.878 L 29.661 38.878 L 29.661 38.878 Q 29.547 38.453 29.321 38.134 L 29.321 38.134 L 29.321 38.134 Q 29.096 37.814 28.756 37.624 L 28.756 37.624 L 28.756 37.624 Q 28.416 37.434 27.965 37.434 L 27.965 37.434 L 27.965 37.434 Q 27.52 37.434 27.186 37.624 L 27.186 37.624 L 27.186 37.624 Q 26.852 37.814 26.626 38.134 L 26.626 38.134 L 26.626 38.134 Q 26.4 38.453 26.289 38.878 L 26.289 38.878 L 26.289 38.878 Q 26.178 39.303 26.178 39.771 L 26.178 39.771 L 26.178 39.771 Z  M 32.213 36.66 L 33.238 36.66 L 33.268 37.363 L 33.268 37.363 Q 33.596 36.977 34.062 36.76 L 34.062 36.76 L 34.062 36.76 Q 34.527 36.543 35.148 36.543 L 35.148 36.543 L 35.148 36.543 Q 35.764 36.543 36.235 36.786 L 36.235 36.786 L 36.235 36.786 Q 36.707 37.029 36.959 37.563 L 36.959 37.563 L 36.959 37.563 Q 37.275 37.105 37.782 36.824 L 37.782 36.824 L 37.782 36.824 Q 38.289 36.543 38.98 36.543 L 38.98 36.543 L 38.98 36.543 Q 39.49 36.543 39.883 36.675 L 39.883 36.675 L 39.883 36.675 Q 40.275 36.807 40.548 37.088 L 40.548 37.088 L 40.548 37.088 Q 40.82 37.369 40.961 37.803 L 40.961 37.803 L 40.961 37.803 Q 41.102 38.236 41.102 38.834 L 41.102 38.834 L 41.102 43 L 40.018 43 L 40.018 38.828 L 40.018 38.828 Q 40.018 38.43 39.921 38.166 L 39.921 38.166 L 39.921 38.166 Q 39.824 37.902 39.648 37.744 L 39.648 37.744 L 39.648 37.744 Q 39.473 37.586 39.221 37.524 L 39.221 37.524 L 39.221 37.524 Q 38.969 37.463 38.664 37.463 L 38.664 37.463 L 38.664 37.463 Q 38.33 37.463 38.072 37.568 L 38.072 37.568 L 38.072 37.568 Q 37.814 37.674 37.63 37.853 L 37.63 37.853 L 37.63 37.853 Q 37.445 38.031 37.337 38.274 L 37.337 38.274 L 37.337 38.274 Q 37.229 38.518 37.199 38.793 L 37.199 38.793 L 37.199 43 L 36.109 43 L 36.109 38.834 L 36.109 38.834 Q 36.109 38.465 36.013 38.204 L 36.013 38.204 L 36.013 38.204 Q 35.916 37.943 35.74 37.779 L 35.74 37.779 L 35.74 37.779 Q 35.564 37.615 35.315 37.539 L 35.315 37.539 L 35.315 37.539 Q 35.066 37.463 34.756 37.463 L 34.756 37.463 L 34.756 37.463 Q 34.176 37.463 33.824 37.715 L 33.824 37.715 L 33.824 37.715 Q 33.473 37.967 33.297 38.371 L 33.297 38.371 L 33.297 43 L 32.213 43 L 32.213 36.66 L 32.213 36.66 Z  M 45.367 43.117 L 45.367 43.117 L 45.367 43.117 Q 44.705 43.117 44.169 42.889 L 44.169 42.889 L 44.169 42.889 Q 43.633 42.66 43.252 42.253 L 43.252 42.253 L 43.252 42.253 Q 42.871 41.846 42.666 41.283 L 42.666 41.283 L 42.666 41.283 Q 42.461 40.721 42.461 40.053 L 42.461 40.053 L 42.461 39.807 L 42.461 39.807 Q 42.461 39.033 42.692 38.424 L 42.692 38.424 L 42.692 38.424 Q 42.924 37.814 43.311 37.398 L 43.311 37.398 L 43.311 37.398 Q 43.697 36.982 44.195 36.763 L 44.195 36.763 L 44.195 36.763 Q 44.693 36.543 45.232 36.543 L 45.232 36.543 L 45.232 36.543 Q 45.912 36.543 46.404 36.78 L 46.404 36.78 L 46.404 36.78 Q 46.896 37.018 47.216 37.434 L 47.216 37.434 L 47.216 37.434 Q 47.535 37.85 47.687 38.418 L 47.687 38.418 L 47.687 38.418 Q 47.84 38.986 47.84 39.654 L 47.84 39.654 L 47.84 40.141 L 43.545 40.141 L 43.545 40.141 Q 43.557 40.58 43.688 40.961 L 43.688 40.961 L 43.688 40.961 Q 43.82 41.342 44.063 41.623 L 44.063 41.623 L 44.063 41.623 Q 44.307 41.904 44.649 42.068 L 44.649 42.068 L 44.649 42.068 Q 44.992 42.232 45.426 42.232 L 45.426 42.232 L 45.426 42.232 Q 46 42.232 46.398 41.998 L 46.398 41.998 L 46.398 41.998 Q 46.797 41.764 47.096 41.377 L 47.096 41.377 L 47.758 41.893 L 47.758 41.893 Q 47.605 42.127 47.389 42.347 L 47.389 42.347 L 47.389 42.347 Q 47.172 42.566 46.882 42.739 L 46.882 42.739 L 46.882 42.739 Q 46.592 42.912 46.217 43.015 L 46.217 43.015 L 46.217 43.015 Q 45.842 43.117 45.367 43.117 Z  M 45.232 37.434 L 45.232 37.434 L 45.232 37.434 Q 44.904 37.434 44.629 37.554 L 44.629 37.554 L 44.629 37.554 Q 44.354 37.674 44.137 37.902 L 44.137 37.902 L 44.137 37.902 Q 43.92 38.131 43.776 38.471 L 43.776 38.471 L 43.776 38.471 Q 43.633 38.811 43.58 39.25 L 43.58 39.25 L 46.756 39.25 L 46.756 39.168 L 46.756 39.168 Q 46.738 38.852 46.653 38.541 L 46.653 38.541 L 46.653 38.541 Q 46.568 38.23 46.39 37.984 L 46.39 37.984 L 46.39 37.984 Q 46.211 37.738 45.93 37.586 L 45.93 37.586 L 45.93 37.586 Q 45.648 37.434 45.232 37.434 Z " fill-rule="evenodd" fill="rgb(1,35,149)"/></g><g id="outline-home-24px"><path d=" M 20 9 L 44 9 L 44 33 L 20 33 L 20 9 Z " fill="none"/><path d=" M 32 14.69 L 37 19.19 L 37 27 L 35 27 L 35 21 L 29 21 L 29 27 L 27 27 L 27 19.19 L 32 14.69 Z  M 32 12 L 22 21 L 25 21 L 25 29 L 31 29 L 31 23 L 33 23 L 33 29 L 39 29 L 39 21 L 42 21 L 32 12 Z " fill="rgb(1,35,149)"/></g></g></g></g></svg>