<?xml version="1.0" standalone="no"?><!-- Generator: Gravit.io --><svg xmlns="http://www.w3.org/2000/svg" xmlns:xlink="http://www.w3.org/1999/xlink" style="isolation:isolate" viewBox="0 0 65 55" width="65" height="55"><defs><clipPath id="_clipPath_iIaQtDguF6Zc95FqX1iwh2zhbybo7Dxd"><rect width="65" height="55"/></clipPath></defs><g clip-path="url(#_clipPath_iIaQtDguF6Zc95FqX1iwh2zhbybo7Dxd)"><clipPath id="_clipPath_MhDMvZtop7lfBfNn6xQNVsc6iBWnINzr"><rect x="0" y="0" width="65" height="55" transform="matrix(1,0,0,1,0,0)" fill="rgb(255,255,255)"/></clipPath><g clip-path="url(#_clipPath_MhDMvZtop7lfBfNn6xQNVsc6iBWnINzr)"><g id="Menu"><rect x="0" y="0" width="65" height="55" transform="matrix(1,0,0,1,0,0)" fill="none"/><g id="Group_425"><path d=" M 20.492 34.469 L 21.945 34.469 L 24.734 41.43 L 27.523 34.469 L 28.982 34.469 L 28.982 43 L 27.857 43 L 27.857 39.678 L 27.963 36.092 L 25.162 43 L 24.301 43 L 21.506 36.109 L 21.617 39.678 L 21.617 43 L 20.492 43 L 20.492 34.469 L 20.492 34.469 Z  M 33.43 43.117 L 33.43 43.117 L 33.43 43.117 Q 32.768 43.117 32.231 42.889 L 32.231 42.889 L 32.231 42.889 Q 31.695 42.66 31.314 42.253 L 31.314 42.253 L 31.314 42.253 Q 30.934 41.846 30.729 41.283 L 30.729 41.283 L 30.729 41.283 Q 30.523 40.721 30.523 40.053 L 30.523 40.053 L 30.523 39.807 L 30.523 39.807 Q 30.523 39.033 30.755 38.424 L 30.755 38.424 L 30.755 38.424 Q 30.986 37.814 31.373 37.398 L 31.373 37.398 L 31.373 37.398 Q 31.76 36.982 32.258 36.763 L 32.258 36.763 L 32.258 36.763 Q 32.756 36.543 33.295 36.543 L 33.295 36.543 L 33.295 36.543 Q 33.975 36.543 34.467 36.78 L 34.467 36.78 L 34.467 36.78 Q 34.959 37.018 35.278 37.434 L 35.278 37.434 L 35.278 37.434 Q 35.598 37.85 35.75 38.418 L 35.75 38.418 L 35.75 38.418 Q 35.902 38.986 35.902 39.654 L 35.902 39.654 L 35.902 40.141 L 31.607 40.141 L 31.607 40.141 Q 31.619 40.58 31.751 40.961 L 31.751 40.961 L 31.751 40.961 Q 31.883 41.342 32.126 41.623 L 32.126 41.623 L 32.126 41.623 Q 32.369 41.904 32.712 42.068 L 32.712 42.068 L 32.712 42.068 Q 33.055 42.232 33.488 42.232 L 33.488 42.232 L 33.488 42.232 Q 34.063 42.232 34.461 41.998 L 34.461 41.998 L 34.461 41.998 Q 34.859 41.764 35.158 41.377 L 35.158 41.377 L 35.82 41.893 L 35.82 41.893 Q 35.668 42.127 35.451 42.347 L 35.451 42.347 L 35.451 42.347 Q 35.234 42.566 34.944 42.739 L 34.944 42.739 L 34.944 42.739 Q 34.654 42.912 34.279 43.015 L 34.279 43.015 L 34.279 43.015 Q 33.904 43.117 33.43 43.117 Z  M 33.295 37.434 L 33.295 37.434 L 33.295 37.434 Q 32.967 37.434 32.691 37.554 L 32.691 37.554 L 32.691 37.554 Q 32.416 37.674 32.199 37.902 L 32.199 37.902 L 32.199 37.902 Q 31.982 38.131 31.839 38.471 L 31.839 38.471 L 31.839 38.471 Q 31.695 38.811 31.643 39.25 L 31.643 39.25 L 34.818 39.25 L 34.818 39.168 L 34.818 39.168 Q 34.801 38.852 34.716 38.541 L 34.716 38.541 L 34.716 38.541 Q 34.631 38.23 34.452 37.984 L 34.452 37.984 L 34.452 37.984 Q 34.273 37.738 33.992 37.586 L 33.992 37.586 L 33.992 37.586 Q 33.711 37.434 33.295 37.434 Z  M 37.156 36.66 L 38.182 36.66 L 38.217 37.457 L 38.217 37.457 Q 38.557 37.029 39.037 36.786 L 39.037 36.786 L 39.037 36.786 Q 39.518 36.543 40.115 36.543 L 40.115 36.543 L 40.115 36.543 Q 40.578 36.543 40.953 36.669 L 40.953 36.669 L 40.953 36.669 Q 41.328 36.795 41.592 37.073 L 41.592 37.073 L 41.592 37.073 Q 41.856 37.352 41.999 37.788 L 41.999 37.788 L 41.999 37.788 Q 42.143 38.225 42.143 38.846 L 42.143 38.846 L 42.143 43 L 41.059 43 L 41.059 38.834 L 41.059 38.834 Q 41.059 38.465 40.977 38.204 L 40.977 38.204 L 40.977 38.204 Q 40.895 37.943 40.733 37.779 L 40.733 37.779 L 40.733 37.779 Q 40.572 37.615 40.335 37.539 L 40.335 37.539 L 40.335 37.539 Q 40.098 37.463 39.787 37.463 L 39.787 37.463 L 39.787 37.463 Q 39.26 37.463 38.861 37.744 L 38.861 37.744 L 38.861 37.744 Q 38.463 38.025 38.24 38.482 L 38.24 38.482 L 38.24 43 L 37.156 43 L 37.156 36.66 L 37.156 36.66 Z  M 47.715 43 L 47.691 42.373 L 47.691 42.373 Q 47.393 42.725 46.936 42.921 L 46.936 42.921 L 46.936 42.921 Q 46.479 43.117 45.834 43.117 L 45.834 43.117 L 45.834 43.117 Q 45.365 43.117 44.984 42.985 L 44.984 42.985 L 44.984 42.985 Q 44.604 42.854 44.328 42.569 L 44.328 42.569 L 44.328 42.569 Q 44.053 42.285 43.903 41.837 L 43.903 41.837 L 43.903 41.837 Q 43.754 41.389 43.754 40.756 L 43.754 40.756 L 43.754 36.66 L 44.838 36.66 L 44.838 40.768 L 44.838 40.768 Q 44.838 41.195 44.938 41.474 L 44.938 41.474 L 44.938 41.474 Q 45.037 41.752 45.201 41.913 L 45.201 41.913 L 45.201 41.913 Q 45.365 42.074 45.576 42.136 L 45.576 42.136 L 45.576 42.136 Q 45.787 42.197 46.01 42.197 L 46.01 42.197 L 46.01 42.197 Q 46.672 42.197 47.073 41.945 L 47.073 41.945 L 47.073 41.945 Q 47.475 41.693 47.662 41.271 L 47.662 41.271 L 47.662 36.66 L 48.746 36.66 L 48.746 43 L 47.715 43 L 47.715 43 Z " fill-rule="evenodd" fill="rgb(1,35,149)"/></g><g id="baseline-restaurant-24px"><path d=" M 32 17 L 30 17 L 30 10 L 28 10 L 28 17 L 26 17 L 26 10 L 24 10 L 24 17 C 24.005 19.106 25.647 20.845 27.75 20.97 L 27.75 30 L 30.25 30 L 30.25 20.97 C 32.353 20.845 33.995 19.106 34 17 L 34 10 L 32 10 L 32 17 Z  M 37 14 L 37 22 L 39.5 22 L 39.5 30 L 42 30 L 42 10 C 39.24 10 37 12.24 37 14 Z " fill="rgb(1,35,149)"/><path d=" M 21 8 L 45 8 L 45 32 L 21 32 L 21 8 Z " fill="none"/></g></g></g></g></svg>