<?xml version="1.0" standalone="no"?><!-- Generator: Gravit.io --><svg xmlns="http://www.w3.org/2000/svg" xmlns:xlink="http://www.w3.org/1999/xlink" style="isolation:isolate" viewBox="0 0 65 55" width="65" height="55"><defs><clipPath id="_clipPath_KN4nlRKRWlX0Tq8mIdkgF9jq2wu0PdlF"><rect width="65" height="55"/></clipPath></defs><g clip-path="url(#_clipPath_KN4nlRKRWlX0Tq8mIdkgF9jq2wu0PdlF)"><clipPath id="_clipPath_etiMiCZJ2jy6PQXixMCDIiwmkQRMLEn4"><rect x="0" y="0" width="65" height="55" transform="matrix(1,0,0,1,0,0)" fill="rgb(255,255,255)"/></clipPath><g clip-path="url(#_clipPath_etiMiCZJ2jy6PQXixMCDIiwmkQRMLEn4)"><g id="Settings"><rect x="0" y="0" width="65" height="55" transform="matrix(1,0,0,1,0,0)" fill="none"/><g id="Group_425"><path d=" M 15.537 40.379 L 15.537 40.379 L 15.537 40.379 Q 15.537 40.08 15.446 39.852 L 15.446 39.852 L 15.446 39.852 Q 15.355 39.623 15.124 39.433 L 15.124 39.433 L 15.124 39.433 Q 14.893 39.242 14.5 39.075 L 14.5 39.075 L 14.5 39.075 Q 14.107 38.908 13.504 38.732 L 13.504 38.732 L 13.504 38.732 Q 12.871 38.551 12.358 38.319 L 12.358 38.319 L 12.358 38.319 Q 11.846 38.088 11.485 37.786 L 11.485 37.786 L 11.485 37.786 Q 11.125 37.484 10.932 37.098 L 10.932 37.098 L 10.932 37.098 Q 10.738 36.711 10.738 36.213 L 10.738 36.213 L 10.738 36.213 Q 10.738 35.715 10.946 35.29 L 10.946 35.29 L 10.946 35.29 Q 11.154 34.865 11.535 34.552 L 11.535 34.552 L 11.535 34.552 Q 11.916 34.238 12.449 34.063 L 12.449 34.063 L 12.449 34.063 Q 12.982 33.887 13.639 33.887 L 13.639 33.887 L 13.639 33.887 Q 14.359 33.887 14.922 34.104 L 14.922 34.104 L 14.922 34.104 Q 15.484 34.32 15.868 34.678 L 15.868 34.678 L 15.868 34.678 Q 16.252 35.035 16.451 35.504 L 16.451 35.504 L 16.451 35.504 Q 16.65 35.973 16.65 36.471 L 16.65 36.471 L 15.52 36.471 L 15.52 36.471 Q 15.52 36.113 15.405 35.809 L 15.405 35.809 L 15.405 35.809 Q 15.291 35.504 15.057 35.281 L 15.057 35.281 L 15.057 35.281 Q 14.822 35.059 14.471 34.936 L 14.471 34.936 L 14.471 34.936 Q 14.119 34.813 13.639 34.813 L 13.639 34.813 L 13.639 34.813 Q 13.188 34.813 12.854 34.918 L 12.854 34.918 L 12.854 34.918 Q 12.52 35.023 12.303 35.208 L 12.303 35.208 L 12.303 35.208 Q 12.086 35.393 11.98 35.645 L 11.98 35.645 L 11.98 35.645 Q 11.875 35.897 11.875 36.195 L 11.875 36.195 L 11.875 36.195 Q 11.875 36.465 11.989 36.688 L 11.989 36.688 L 11.989 36.688 Q 12.104 36.91 12.344 37.098 L 12.344 37.098 L 12.344 37.098 Q 12.584 37.285 12.962 37.443 L 12.962 37.443 L 12.962 37.443 Q 13.34 37.602 13.867 37.748 L 13.867 37.748 L 13.867 37.748 Q 14.594 37.953 15.121 38.202 L 15.121 38.202 L 15.121 38.202 Q 15.648 38.451 15.991 38.768 L 15.991 38.768 L 15.991 38.768 Q 16.334 39.084 16.501 39.477 L 16.501 39.477 L 16.501 39.477 Q 16.668 39.869 16.668 40.367 L 16.668 40.367 L 16.668 40.367 Q 16.668 40.889 16.457 41.311 L 16.457 41.311 L 16.457 41.311 Q 16.246 41.732 15.856 42.031 L 15.856 42.031 L 15.856 42.031 Q 15.467 42.33 14.919 42.491 L 14.919 42.491 L 14.919 42.491 Q 14.371 42.652 13.697 42.652 L 13.697 42.652 L 13.697 42.652 Q 13.305 42.652 12.912 42.579 L 12.912 42.579 L 12.912 42.579 Q 12.52 42.506 12.159 42.359 L 12.159 42.359 L 12.159 42.359 Q 11.799 42.213 11.491 41.996 L 11.491 41.996 L 11.491 41.996 Q 11.184 41.779 10.955 41.492 L 10.955 41.492 L 10.955 41.492 Q 10.727 41.205 10.598 40.848 L 10.598 40.848 L 10.598 40.848 Q 10.469 40.49 10.469 40.063 L 10.469 40.063 L 11.6 40.063 L 11.6 40.063 Q 11.6 40.502 11.772 40.815 L 11.772 40.815 L 11.772 40.815 Q 11.945 41.129 12.235 41.334 L 12.235 41.334 L 12.235 41.334 Q 12.525 41.539 12.903 41.636 L 12.903 41.636 L 12.903 41.636 Q 13.281 41.732 13.697 41.732 L 13.697 41.732 L 13.697 41.732 Q 14.588 41.732 15.063 41.369 L 15.063 41.369 L 15.063 41.369 Q 15.537 41.006 15.537 40.379 Z  M 20.57 42.652 L 20.57 42.652 L 20.57 42.652 Q 19.908 42.652 19.372 42.424 L 19.372 42.424 L 19.372 42.424 Q 18.836 42.195 18.455 41.788 L 18.455 41.788 L 18.455 41.788 Q 18.074 41.381 17.869 40.818 L 17.869 40.818 L 17.869 40.818 Q 17.664 40.256 17.664 39.588 L 17.664 39.588 L 17.664 39.342 L 17.664 39.342 Q 17.664 38.568 17.896 37.959 L 17.896 37.959 L 17.896 37.959 Q 18.127 37.35 18.514 36.934 L 18.514 36.934 L 18.514 36.934 Q 18.9 36.518 19.398 36.298 L 19.398 36.298 L 19.398 36.298 Q 19.896 36.078 20.436 36.078 L 20.436 36.078 L 20.436 36.078 Q 21.115 36.078 21.607 36.315 L 21.607 36.315 L 21.607 36.315 Q 22.1 36.553 22.419 36.969 L 22.419 36.969 L 22.419 36.969 Q 22.738 37.385 22.891 37.953 L 22.891 37.953 L 22.891 37.953 Q 23.043 38.522 23.043 39.189 L 23.043 39.189 L 23.043 39.676 L 18.748 39.676 L 18.748 39.676 Q 18.76 40.115 18.892 40.496 L 18.892 40.496 L 18.892 40.496 Q 19.023 40.877 19.267 41.158 L 19.267 41.158 L 19.267 41.158 Q 19.51 41.439 19.853 41.604 L 19.853 41.604 L 19.853 41.604 Q 20.195 41.768 20.629 41.768 L 20.629 41.768 L 20.629 41.768 Q 21.203 41.768 21.602 41.533 L 21.602 41.533 L 21.602 41.533 Q 22 41.299 22.299 40.912 L 22.299 40.912 L 22.961 41.428 L 22.961 41.428 Q 22.809 41.662 22.592 41.882 L 22.592 41.882 L 22.592 41.882 Q 22.375 42.102 22.085 42.274 L 22.085 42.274 L 22.085 42.274 Q 21.795 42.447 21.42 42.55 L 21.42 42.55 L 21.42 42.55 Q 21.045 42.652 20.57 42.652 Z  M 20.436 36.969 L 20.436 36.969 L 20.436 36.969 Q 20.107 36.969 19.832 37.089 L 19.832 37.089 L 19.832 37.089 Q 19.557 37.209 19.34 37.438 L 19.34 37.438 L 19.34 37.438 Q 19.123 37.666 18.979 38.006 L 18.979 38.006 L 18.979 38.006 Q 18.836 38.346 18.783 38.785 L 18.783 38.785 L 21.959 38.785 L 21.959 38.703 L 21.959 38.703 Q 21.941 38.387 21.856 38.076 L 21.856 38.076 L 21.856 38.076 Q 21.771 37.766 21.593 37.52 L 21.593 37.52 L 21.593 37.52 Q 21.414 37.273 21.133 37.121 L 21.133 37.121 L 21.133 37.121 Q 20.852 36.969 20.436 36.969 Z  M 24.684 34.66 L 25.768 34.66 L 25.768 36.195 L 26.951 36.195 L 26.951 37.033 L 25.768 37.033 L 25.768 40.965 L 25.768 40.965 Q 25.768 41.211 25.826 41.36 L 25.826 41.36 L 25.826 41.36 Q 25.885 41.51 25.981 41.592 L 25.981 41.592 L 25.981 41.592 Q 26.078 41.674 26.204 41.7 L 26.204 41.7 L 26.204 41.7 Q 26.33 41.727 26.465 41.727 L 26.465 41.727 L 26.465 41.727 Q 26.6 41.727 26.749 41.7 L 26.749 41.7 L 26.749 41.7 Q 26.898 41.674 26.98 41.656 L 26.98 41.656 L 26.98 42.535 L 26.98 42.535 Q 26.852 42.57 26.646 42.611 L 26.646 42.611 L 26.646 42.611 Q 26.441 42.652 26.148 42.652 L 26.148 42.652 L 26.148 42.652 Q 25.85 42.652 25.583 42.567 L 25.583 42.567 L 25.583 42.567 Q 25.316 42.482 25.117 42.283 L 25.117 42.283 L 25.117 42.283 Q 24.918 42.084 24.801 41.759 L 24.801 41.759 L 24.801 41.759 Q 24.684 41.434 24.684 40.959 L 24.684 40.959 L 24.684 37.033 L 23.529 37.033 L 23.529 36.195 L 24.684 36.195 L 24.684 34.66 L 24.684 34.66 Z  M 28.604 34.66 L 29.688 34.66 L 29.688 36.195 L 30.871 36.195 L 30.871 37.033 L 29.688 37.033 L 29.688 40.965 L 29.688 40.965 Q 29.688 41.211 29.746 41.36 L 29.746 41.36 L 29.746 41.36 Q 29.805 41.51 29.901 41.592 L 29.901 41.592 L 29.901 41.592 Q 29.998 41.674 30.124 41.7 L 30.124 41.7 L 30.124 41.7 Q 30.25 41.727 30.385 41.727 L 30.385 41.727 L 30.385 41.727 Q 30.52 41.727 30.669 41.7 L 30.669 41.7 L 30.669 41.7 Q 30.818 41.674 30.9 41.656 L 30.9 41.656 L 30.9 42.535 L 30.9 42.535 Q 30.771 42.57 30.566 42.611 L 30.566 42.611 L 30.566 42.611 Q 30.361 42.652 30.068 42.652 L 30.068 42.652 L 30.068 42.652 Q 29.77 42.652 29.503 42.567 L 29.503 42.567 L 29.503 42.567 Q 29.236 42.482 29.037 42.283 L 29.037 42.283 L 29.037 42.283 Q 28.838 42.084 28.721 41.759 L 28.721 41.759 L 28.721 41.759 Q 28.604 41.434 28.604 40.959 L 28.604 40.959 L 28.604 37.033 L 27.449 37.033 L 27.449 36.195 L 28.604 36.195 L 28.604 34.66 L 28.604 34.66 Z  M 33.314 36.195 L 33.314 42.535 L 32.23 42.535 L 32.23 36.195 L 33.314 36.195 L 33.314 36.195 Z  M 32.143 34.514 L 32.143 34.514 L 32.143 34.514 Q 32.143 34.25 32.304 34.068 L 32.304 34.068 L 32.304 34.068 Q 32.465 33.887 32.781 33.887 L 32.781 33.887 L 32.781 33.887 Q 33.098 33.887 33.262 34.068 L 33.262 34.068 L 33.262 34.068 Q 33.426 34.25 33.426 34.514 L 33.426 34.514 L 33.426 34.514 Q 33.426 34.777 33.262 34.953 L 33.262 34.953 L 33.262 34.953 Q 33.098 35.129 32.781 35.129 L 32.781 35.129 L 32.781 35.129 Q 32.465 35.129 32.304 34.953 L 32.304 34.953 L 32.304 34.953 Q 32.143 34.777 32.143 34.514 Z  M 35.049 36.195 L 36.074 36.195 L 36.109 36.992 L 36.109 36.992 Q 36.449 36.564 36.93 36.321 L 36.93 36.321 L 36.93 36.321 Q 37.41 36.078 38.008 36.078 L 38.008 36.078 L 38.008 36.078 Q 38.471 36.078 38.846 36.204 L 38.846 36.204 L 38.846 36.204 Q 39.221 36.33 39.484 36.608 L 39.484 36.608 L 39.484 36.608 Q 39.748 36.887 39.892 37.323 L 39.892 37.323 L 39.892 37.323 Q 40.035 37.76 40.035 38.381 L 40.035 38.381 L 40.035 42.535 L 38.951 42.535 L 38.951 38.369 L 38.951 38.369 Q 38.951 38 38.869 37.739 L 38.869 37.739 L 38.869 37.739 Q 38.787 37.479 38.626 37.314 L 38.626 37.314 L 38.626 37.314 Q 38.465 37.15 38.228 37.074 L 38.228 37.074 L 38.228 37.074 Q 37.99 36.998 37.68 36.998 L 37.68 36.998 L 37.68 36.998 Q 37.152 36.998 36.754 37.279 L 36.754 37.279 L 36.754 37.279 Q 36.355 37.561 36.133 38.018 L 36.133 38.018 L 36.133 42.535 L 35.049 42.535 L 35.049 36.195 L 35.049 36.195 Z  M 41.412 39.436 L 41.412 39.313 L 41.412 39.313 Q 41.412 38.586 41.585 37.991 L 41.585 37.991 L 41.585 37.991 Q 41.758 37.397 42.083 36.972 L 42.083 36.972 L 42.083 36.972 Q 42.408 36.547 42.871 36.313 L 42.871 36.313 L 42.871 36.313 Q 43.334 36.078 43.914 36.078 L 43.914 36.078 L 43.914 36.078 Q 44.518 36.078 44.963 36.289 L 44.963 36.289 L 44.963 36.289 Q 45.408 36.5 45.725 36.898 L 45.725 36.898 L 45.777 36.195 L 46.768 36.195 L 46.768 42.4 L 46.768 42.4 Q 46.768 43.027 46.571 43.517 L 46.571 43.517 L 46.571 43.517 Q 46.375 44.006 46.018 44.343 L 46.018 44.343 L 46.018 44.343 Q 45.66 44.68 45.168 44.855 L 45.168 44.855 L 45.168 44.855 Q 44.676 45.031 44.078 45.031 L 44.078 45.031 L 44.078 45.031 Q 43.832 45.031 43.513 44.976 L 43.513 44.976 L 43.513 44.976 Q 43.193 44.92 42.868 44.794 L 42.868 44.794 L 42.868 44.794 Q 42.543 44.668 42.244 44.457 L 42.244 44.457 L 42.244 44.457 Q 41.945 44.246 41.734 43.936 L 41.734 43.936 L 42.297 43.285 L 42.297 43.285 Q 42.496 43.531 42.707 43.695 L 42.707 43.695 L 42.707 43.695 Q 42.918 43.859 43.132 43.959 L 43.132 43.959 L 43.132 43.959 Q 43.346 44.059 43.565 44.103 L 43.565 44.103 L 43.565 44.103 Q 43.785 44.147 44.002 44.147 L 44.002 44.147 L 44.002 44.147 Q 44.383 44.147 44.693 44.038 L 44.693 44.038 L 44.693 44.038 Q 45.004 43.93 45.224 43.713 L 45.224 43.713 L 45.224 43.713 Q 45.443 43.496 45.561 43.183 L 45.561 43.183 L 45.561 43.183 Q 45.678 42.869 45.678 42.453 L 45.678 42.453 L 45.678 41.902 L 45.678 41.902 Q 45.361 42.266 44.925 42.459 L 44.925 42.459 L 44.925 42.459 Q 44.488 42.652 43.902 42.652 L 43.902 42.652 L 43.902 42.652 Q 43.334 42.652 42.874 42.412 L 42.874 42.412 L 42.874 42.412 Q 42.414 42.172 42.089 41.741 L 42.089 41.741 L 42.089 41.741 Q 41.764 41.311 41.588 40.722 L 41.588 40.722 L 41.588 40.722 Q 41.412 40.133 41.412 39.436 L 41.412 39.436 L 41.412 39.436 Z  M 42.502 39.313 L 42.502 39.436 L 42.502 39.436 Q 42.502 39.91 42.599 40.329 L 42.599 40.329 L 42.599 40.329 Q 42.695 40.748 42.897 41.059 L 42.897 41.059 L 42.897 41.059 Q 43.1 41.369 43.416 41.551 L 43.416 41.551 L 43.416 41.551 Q 43.732 41.732 44.172 41.732 L 44.172 41.732 L 44.172 41.732 Q 44.459 41.732 44.69 41.662 L 44.69 41.662 L 44.69 41.662 Q 44.922 41.592 45.106 41.469 L 45.106 41.469 L 45.106 41.469 Q 45.291 41.346 45.432 41.176 L 45.432 41.176 L 45.432 41.176 Q 45.572 41.006 45.678 40.801 L 45.678 40.801 L 45.678 37.906 L 45.678 37.906 Q 45.572 37.713 45.432 37.546 L 45.432 37.546 L 45.432 37.546 Q 45.291 37.379 45.106 37.256 L 45.106 37.256 L 45.106 37.256 Q 44.922 37.133 44.693 37.065 L 44.693 37.065 L 44.693 37.065 Q 44.465 36.998 44.184 36.998 L 44.184 36.998 L 44.184 36.998 Q 43.738 36.998 43.422 37.183 L 43.422 37.183 L 43.422 37.183 Q 43.105 37.367 42.9 37.684 L 42.9 37.684 L 42.9 37.684 Q 42.695 38 42.599 38.419 L 42.599 38.419 L 42.599 38.419 Q 42.502 38.838 42.502 39.313 L 42.502 39.313 L 42.502 39.313 Z  M 52.094 40.854 L 52.094 40.854 L 52.094 40.854 Q 52.094 40.678 52.041 40.522 L 52.041 40.522 L 52.041 40.522 Q 51.988 40.367 51.833 40.23 L 51.833 40.23 L 51.833 40.23 Q 51.678 40.092 51.391 39.975 L 51.391 39.975 L 51.391 39.975 Q 51.104 39.857 50.635 39.758 L 50.635 39.758 L 50.635 39.758 Q 50.107 39.647 49.686 39.494 L 49.686 39.494 L 49.686 39.494 Q 49.264 39.342 48.968 39.128 L 48.968 39.128 L 48.968 39.128 Q 48.672 38.914 48.514 38.621 L 48.514 38.621 L 48.514 38.621 Q 48.355 38.328 48.355 37.936 L 48.355 37.936 L 48.355 37.936 Q 48.355 37.561 48.522 37.224 L 48.522 37.224 L 48.522 37.224 Q 48.689 36.887 48.994 36.632 L 48.994 36.632 L 48.994 36.632 Q 49.299 36.377 49.732 36.228 L 49.732 36.228 L 49.732 36.228 Q 50.166 36.078 50.699 36.078 L 50.699 36.078 L 50.699 36.078 Q 51.268 36.078 51.716 36.233 L 51.716 36.233 L 51.716 36.233 Q 52.164 36.389 52.478 36.658 L 52.478 36.658 L 52.478 36.658 Q 52.791 36.928 52.955 37.288 L 52.955 37.288 L 52.955 37.288 Q 53.119 37.648 53.119 38.059 L 53.119 38.059 L 52.029 38.059 L 52.029 38.059 Q 52.029 37.865 51.941 37.669 L 51.941 37.669 L 51.941 37.669 Q 51.854 37.473 51.684 37.317 L 51.684 37.317 L 51.684 37.317 Q 51.514 37.162 51.268 37.065 L 51.268 37.065 L 51.268 37.065 Q 51.021 36.969 50.699 36.969 L 50.699 36.969 L 50.699 36.969 Q 50.359 36.969 50.122 37.048 L 50.122 37.048 L 50.122 37.048 Q 49.885 37.127 49.732 37.259 L 49.732 37.259 L 49.732 37.259 Q 49.58 37.391 49.51 37.558 L 49.51 37.558 L 49.51 37.558 Q 49.439 37.725 49.439 37.9 L 49.439 37.9 L 49.439 37.9 Q 49.439 38.076 49.498 38.217 L 49.498 38.217 L 49.498 38.217 Q 49.557 38.357 49.721 38.472 L 49.721 38.472 L 49.721 38.472 Q 49.885 38.586 50.169 38.683 L 50.169 38.683 L 50.169 38.683 Q 50.453 38.779 50.904 38.879 L 50.904 38.879 L 50.904 38.879 Q 51.484 39.014 51.912 39.184 L 51.912 39.184 L 51.912 39.184 Q 52.34 39.354 52.621 39.579 L 52.621 39.579 L 52.621 39.579 Q 52.902 39.805 53.04 40.098 L 53.04 40.098 L 53.04 40.098 Q 53.178 40.391 53.178 40.777 L 53.178 40.777 L 53.178 40.777 Q 53.178 41.193 53.005 41.539 L 53.005 41.539 L 53.005 41.539 Q 52.832 41.885 52.51 42.131 L 52.51 42.131 L 52.51 42.131 Q 52.188 42.377 51.736 42.515 L 51.736 42.515 L 51.736 42.515 Q 51.285 42.652 50.734 42.652 L 50.734 42.652 L 50.734 42.652 Q 50.102 42.652 49.618 42.477 L 49.618 42.477 L 49.618 42.477 Q 49.135 42.301 48.807 42.011 L 48.807 42.011 L 48.807 42.011 Q 48.479 41.721 48.309 41.349 L 48.309 41.349 L 48.309 41.349 Q 48.139 40.977 48.139 40.584 L 48.139 40.584 L 49.223 40.584 L 49.223 40.584 Q 49.24 40.918 49.384 41.144 L 49.384 41.144 L 49.384 41.144 Q 49.527 41.369 49.744 41.51 L 49.744 41.51 L 49.744 41.51 Q 49.961 41.65 50.219 41.709 L 50.219 41.709 L 50.219 41.709 Q 50.477 41.768 50.734 41.768 L 50.734 41.768 L 50.734 41.768 Q 51.068 41.768 51.32 41.697 L 51.32 41.697 L 51.32 41.697 Q 51.572 41.627 51.745 41.504 L 51.745 41.504 L 51.745 41.504 Q 51.918 41.381 52.006 41.214 L 52.006 41.214 L 52.006 41.214 Q 52.094 41.047 52.094 40.854 Z " fill-rule="evenodd" fill="rgb(1,35,149)"/></g><g id="outline-settings-24px"><path d=" M 23 8 L 47 8 L 47 32 L 23 32 L 23 8 Z " fill="none"/><path d=" M 39.778 20.515 C 39.822 20.19 39.845 19.863 39.848 19.535 C 39.845 19.207 39.822 18.88 39.778 18.555 L 41.888 16.905 C 42.08 16.751 42.131 16.479 42.008 16.265 L 40.008 12.805 C 39.917 12.648 39.749 12.553 39.568 12.555 C 39.51 12.555 39.452 12.565 39.398 12.585 L 36.908 13.585 C 36.391 13.184 35.823 12.855 35.218 12.605 L 34.838 9.955 C 34.804 9.712 34.594 9.532 34.348 9.535 L 30.348 9.535 C 30.102 9.532 29.892 9.712 29.858 9.955 L 29.478 12.605 C 28.875 12.859 28.307 13.188 27.788 13.585 L 25.298 12.585 C 25.24 12.566 25.179 12.555 25.118 12.555 C 24.94 12.556 24.777 12.651 24.688 12.805 L 22.688 16.265 C 22.561 16.478 22.613 16.752 22.808 16.905 L 24.918 18.555 C 24.874 18.88 24.851 19.207 24.848 19.535 C 24.851 19.863 24.874 20.19 24.918 20.515 L 22.808 22.165 C 22.616 22.32 22.565 22.591 22.688 22.805 L 24.688 26.265 C 24.779 26.422 24.947 26.518 25.128 26.515 C 25.186 26.516 25.244 26.506 25.298 26.485 L 27.788 25.485 C 28.305 25.886 28.873 26.216 29.478 26.465 L 29.858 29.115 C 29.892 29.359 30.102 29.539 30.348 29.535 L 34.348 29.535 C 34.594 29.539 34.804 29.359 34.838 29.115 L 35.218 26.465 C 35.821 26.212 36.389 25.882 36.908 25.485 L 39.398 26.485 C 39.456 26.505 39.517 26.515 39.578 26.515 C 39.756 26.514 39.919 26.419 40.008 26.265 L 42.008 22.805 C 42.131 22.591 42.08 22.32 41.888 22.165 L 39.778 20.515 Z  M 37.798 18.805 C 37.831 19.047 37.848 19.291 37.848 19.535 C 37.848 19.745 37.828 19.965 37.798 20.265 L 37.658 21.395 L 38.548 22.095 L 39.628 22.935 L 38.928 24.145 L 37.658 23.635 L 36.618 23.215 L 35.718 23.895 C 35.333 24.189 34.913 24.434 34.468 24.625 L 33.408 25.055 L 33.248 26.185 L 33.048 27.535 L 31.648 27.535 L 31.458 26.185 L 31.298 25.055 L 30.238 24.625 C 29.8 24.441 29.387 24.202 29.008 23.915 L 28.098 23.215 L 27.038 23.645 L 25.768 24.155 L 25.068 22.945 L 26.148 22.105 L 27.038 21.405 L 26.898 20.275 C 26.868 19.965 26.848 19.735 26.848 19.535 C 26.848 19.335 26.868 19.105 26.898 18.805 L 27.038 17.675 L 26.148 16.975 L 25.068 16.135 L 25.768 14.925 L 27.038 15.435 L 28.078 15.855 L 28.978 15.175 C 29.363 14.881 29.783 14.636 30.228 14.445 L 31.288 14.015 L 31.448 12.885 L 31.648 11.535 L 33.038 11.535 L 33.228 12.885 L 33.388 14.015 L 34.448 14.445 C 34.886 14.629 35.299 14.868 35.678 15.155 L 36.588 15.855 L 37.648 15.425 L 38.918 14.915 L 39.618 16.125 L 38.548 16.975 L 37.658 17.675 L 37.798 18.805 Z  M 32.348 15.535 C 30.139 15.535 28.348 17.326 28.348 19.535 C 28.348 21.744 30.139 23.535 32.348 23.535 C 34.557 23.535 36.348 21.744 36.348 19.535 C 36.348 17.326 34.557 15.535 32.348 15.535 Z  M 32.348 21.535 C 31.243 21.535 30.348 20.64 30.348 19.535 C 30.348 18.431 31.243 17.535 32.348 17.535 C 33.453 17.535 34.348 18.431 34.348 19.535 C 34.345 20.638 33.451 21.532 32.348 21.535 L 32.348 21.535 Z " fill="rgb(1,35,149)"/></g></g></g></g></svg>