<?xml version="1.0" standalone="no"?><!-- Generator: Gravit.io --><svg xmlns="http://www.w3.org/2000/svg" xmlns:xlink="http://www.w3.org/1999/xlink" style="isolation:isolate" viewBox="0 0 65 55" width="65" height="55"><defs><clipPath id="_clipPath_fA2XhecT5nIO1OI8CpMx7ZaxygRnoOqz"><rect width="65" height="55"/></clipPath></defs><g clip-path="url(#_clipPath_fA2XhecT5nIO1OI8CpMx7ZaxygRnoOqz)"><clipPath id="_clipPath_O6wJ0HvVce8egrvrqfjMfQdk46waE2lc"><rect x="0" y="0" width="65" height="55" transform="matrix(1,0,0,1,0,0)" fill="rgb(255,255,255)"/></clipPath><g clip-path="url(#_clipPath_O6wJ0HvVce8egrvrqfjMfQdk46waE2lc)"><g id="Shop"><rect x="0" y="0" width="65" height="55" transform="matrix(1,0,0,1,0,0)" fill="none"/><g id="Group_425"><path d=" M 25.422 40.844 L 25.422 40.844 L 25.422 40.844 Q 25.422 40.545 25.331 40.316 L 25.331 40.316 L 25.331 40.316 Q 25.24 40.088 25.009 39.897 L 25.009 39.897 L 25.009 39.897 Q 24.778 39.707 24.385 39.54 L 24.385 39.54 L 24.385 39.54 Q 23.992 39.373 23.389 39.197 L 23.389 39.197 L 23.389 39.197 Q 22.756 39.016 22.243 38.784 L 22.243 38.784 L 22.243 38.784 Q 21.731 38.553 21.37 38.251 L 21.37 38.251 L 21.37 38.251 Q 21.01 37.949 20.817 37.563 L 20.817 37.563 L 20.817 37.563 Q 20.623 37.176 20.623 36.678 L 20.623 36.678 L 20.623 36.678 Q 20.623 36.18 20.831 35.755 L 20.831 35.755 L 20.831 35.755 Q 21.039 35.33 21.42 35.017 L 21.42 35.017 L 21.42 35.017 Q 21.801 34.703 22.334 34.527 L 22.334 34.527 L 22.334 34.527 Q 22.867 34.352 23.524 34.352 L 23.524 34.352 L 23.524 34.352 Q 24.244 34.352 24.807 34.568 L 24.807 34.568 L 24.807 34.568 Q 25.369 34.785 25.753 35.143 L 25.753 35.143 L 25.753 35.143 Q 26.137 35.5 26.336 35.969 L 26.336 35.969 L 26.336 35.969 Q 26.535 36.438 26.535 36.936 L 26.535 36.936 L 25.405 36.936 L 25.405 36.936 Q 25.405 36.578 25.29 36.273 L 25.29 36.273 L 25.29 36.273 Q 25.176 35.969 24.942 35.746 L 24.942 35.746 L 24.942 35.746 Q 24.707 35.523 24.356 35.4 L 24.356 35.4 L 24.356 35.4 Q 24.004 35.277 23.524 35.277 L 23.524 35.277 L 23.524 35.277 Q 23.072 35.277 22.739 35.383 L 22.739 35.383 L 22.739 35.383 Q 22.405 35.488 22.188 35.673 L 22.188 35.673 L 22.188 35.673 Q 21.971 35.857 21.865 36.109 L 21.865 36.109 L 21.865 36.109 Q 21.76 36.361 21.76 36.66 L 21.76 36.66 L 21.76 36.66 Q 21.76 36.93 21.874 37.152 L 21.874 37.152 L 21.874 37.152 Q 21.989 37.375 22.229 37.563 L 22.229 37.563 L 22.229 37.563 Q 22.469 37.75 22.847 37.908 L 22.847 37.908 L 22.847 37.908 Q 23.225 38.066 23.752 38.213 L 23.752 38.213 L 23.752 38.213 Q 24.479 38.418 25.006 38.667 L 25.006 38.667 L 25.006 38.667 Q 25.533 38.916 25.876 39.232 L 25.876 39.232 L 25.876 39.232 Q 26.219 39.549 26.386 39.941 L 26.386 39.941 L 26.386 39.941 Q 26.553 40.334 26.553 40.832 L 26.553 40.832 L 26.553 40.832 Q 26.553 41.354 26.342 41.775 L 26.342 41.775 L 26.342 41.775 Q 26.131 42.197 25.741 42.496 L 25.741 42.496 L 25.741 42.496 Q 25.352 42.795 24.804 42.956 L 24.804 42.956 L 24.804 42.956 Q 24.256 43.117 23.582 43.117 L 23.582 43.117 L 23.582 43.117 Q 23.19 43.117 22.797 43.044 L 22.797 43.044 L 22.797 43.044 Q 22.405 42.971 22.044 42.824 L 22.044 42.824 L 22.044 42.824 Q 21.684 42.678 21.376 42.461 L 21.376 42.461 L 21.376 42.461 Q 21.069 42.244 20.84 41.957 L 20.84 41.957 L 20.84 41.957 Q 20.612 41.67 20.483 41.313 L 20.483 41.313 L 20.483 41.313 Q 20.354 40.955 20.354 40.527 L 20.354 40.527 L 21.485 40.527 L 21.485 40.527 Q 21.485 40.967 21.657 41.28 L 21.657 41.28 L 21.657 41.28 Q 21.83 41.594 22.12 41.799 L 22.12 41.799 L 22.12 41.799 Q 22.41 42.004 22.788 42.101 L 22.788 42.101 L 22.788 42.101 Q 23.166 42.197 23.582 42.197 L 23.582 42.197 L 23.582 42.197 Q 24.473 42.197 24.947 41.834 L 24.947 41.834 L 24.947 41.834 Q 25.422 41.471 25.422 40.844 Z  M 28.908 34 L 28.908 37.428 L 28.908 37.428 Q 29.248 37.012 29.723 36.777 L 29.723 36.777 L 29.723 36.777 Q 30.197 36.543 30.783 36.543 L 30.783 36.543 L 30.783 36.543 Q 31.246 36.543 31.621 36.669 L 31.621 36.669 L 31.621 36.669 Q 31.996 36.795 32.26 37.073 L 32.26 37.073 L 32.26 37.073 Q 32.524 37.352 32.667 37.788 L 32.667 37.788 L 32.667 37.788 Q 32.811 38.225 32.811 38.846 L 32.811 38.846 L 32.811 43 L 31.727 43 L 31.727 38.834 L 31.727 38.834 Q 31.727 38.465 31.645 38.204 L 31.645 38.204 L 31.645 38.204 Q 31.563 37.943 31.402 37.779 L 31.402 37.779 L 31.402 37.779 Q 31.24 37.615 31.003 37.539 L 31.003 37.539 L 31.003 37.539 Q 30.766 37.463 30.455 37.463 L 30.455 37.463 L 30.455 37.463 Q 29.928 37.463 29.53 37.744 L 29.53 37.744 L 29.53 37.744 Q 29.131 38.025 28.908 38.482 L 28.908 38.482 L 28.908 43 L 27.824 43 L 27.824 34 L 28.908 34 L 28.908 34 Z  M 34.147 39.9 L 34.147 39.771 L 34.147 39.771 Q 34.147 39.08 34.349 38.491 L 34.349 38.491 L 34.349 38.491 Q 34.551 37.902 34.923 37.469 L 34.923 37.469 L 34.923 37.469 Q 35.295 37.035 35.828 36.789 L 35.828 36.789 L 35.828 36.789 Q 36.362 36.543 37.024 36.543 L 37.024 36.543 L 37.024 36.543 Q 37.698 36.543 38.234 36.789 L 38.234 36.789 L 38.234 36.789 Q 38.77 37.035 39.145 37.469 L 39.145 37.469 L 39.145 37.469 Q 39.52 37.902 39.719 38.491 L 39.719 38.491 L 39.719 38.491 Q 39.918 39.08 39.918 39.771 L 39.918 39.771 L 39.918 39.9 L 39.918 39.9 Q 39.918 40.592 39.719 41.181 L 39.719 41.181 L 39.719 41.181 Q 39.52 41.77 39.145 42.2 L 39.145 42.2 L 39.145 42.2 Q 38.77 42.631 38.237 42.874 L 38.237 42.874 L 38.237 42.874 Q 37.703 43.117 37.035 43.117 L 37.035 43.117 L 37.035 43.117 Q 36.367 43.117 35.834 42.874 L 35.834 42.874 L 35.834 42.874 Q 35.301 42.631 34.926 42.2 L 34.926 42.2 L 34.926 42.2 Q 34.551 41.77 34.349 41.181 L 34.349 41.181 L 34.349 41.181 Q 34.147 40.592 34.147 39.9 L 34.147 39.9 L 34.147 39.9 Z  M 35.237 39.771 L 35.237 39.9 L 35.237 39.9 Q 35.237 40.375 35.348 40.797 L 35.348 40.797 L 35.348 40.797 Q 35.459 41.219 35.685 41.538 L 35.685 41.538 L 35.685 41.538 Q 35.91 41.857 36.247 42.045 L 36.247 42.045 L 36.247 42.045 Q 36.584 42.232 37.035 42.232 L 37.035 42.232 L 37.035 42.232 Q 37.481 42.232 37.821 42.045 L 37.821 42.045 L 37.821 42.045 Q 38.16 41.857 38.383 41.538 L 38.383 41.538 L 38.383 41.538 Q 38.606 41.219 38.72 40.797 L 38.72 40.797 L 38.72 40.797 Q 38.834 40.375 38.834 39.9 L 38.834 39.9 L 38.834 39.771 L 38.834 39.771 Q 38.834 39.303 38.72 38.878 L 38.72 38.878 L 38.72 38.878 Q 38.606 38.453 38.38 38.134 L 38.38 38.134 L 38.38 38.134 Q 38.155 37.814 37.815 37.624 L 37.815 37.624 L 37.815 37.624 Q 37.475 37.434 37.024 37.434 L 37.024 37.434 L 37.024 37.434 Q 36.578 37.434 36.244 37.624 L 36.244 37.624 L 36.244 37.624 Q 35.91 37.814 35.685 38.134 L 35.685 38.134 L 35.685 38.134 Q 35.459 38.453 35.348 38.878 L 35.348 38.878 L 35.348 38.878 Q 35.237 39.303 35.237 39.771 L 35.237 39.771 L 35.237 39.771 Z  M 46.633 39.777 L 46.633 39.9 L 46.633 39.9 Q 46.633 40.598 46.469 41.187 L 46.469 41.187 L 46.469 41.187 Q 46.305 41.775 45.991 42.206 L 45.991 42.206 L 45.991 42.206 Q 45.678 42.637 45.221 42.877 L 45.221 42.877 L 45.221 42.877 Q 44.764 43.117 44.178 43.117 L 44.178 43.117 L 44.178 43.117 Q 43.58 43.117 43.132 42.93 L 43.132 42.93 L 43.132 42.93 Q 42.684 42.742 42.362 42.385 L 42.362 42.385 L 42.362 45.438 L 41.278 45.438 L 41.278 36.66 L 42.268 36.66 L 42.321 37.363 L 42.321 37.363 Q 42.643 36.965 43.1 36.754 L 43.1 36.754 L 43.1 36.754 Q 43.557 36.543 44.16 36.543 L 44.16 36.543 L 44.16 36.543 Q 44.758 36.543 45.218 36.777 L 45.218 36.777 L 45.218 36.777 Q 45.678 37.012 45.994 37.437 L 45.994 37.437 L 45.994 37.437 Q 46.311 37.861 46.472 38.456 L 46.472 38.456 L 46.472 38.456 Q 46.633 39.051 46.633 39.777 L 46.633 39.777 L 46.633 39.777 Z  M 45.549 39.9 L 45.549 39.777 L 45.549 39.777 Q 45.549 39.303 45.449 38.884 L 45.449 38.884 L 45.449 38.884 Q 45.35 38.465 45.139 38.148 L 45.139 38.148 L 45.139 38.148 Q 44.928 37.832 44.606 37.647 L 44.606 37.647 L 44.606 37.647 Q 44.283 37.463 43.838 37.463 L 43.838 37.463 L 43.838 37.463 Q 43.563 37.463 43.337 37.527 L 43.337 37.527 L 43.337 37.527 Q 43.112 37.592 42.93 37.709 L 42.93 37.709 L 42.93 37.709 Q 42.748 37.826 42.608 37.987 L 42.608 37.987 L 42.608 37.987 Q 42.467 38.148 42.362 38.336 L 42.362 38.336 L 42.362 41.365 L 42.362 41.365 Q 42.467 41.553 42.608 41.714 L 42.608 41.714 L 42.608 41.714 Q 42.748 41.875 42.93 41.989 L 42.93 41.989 L 42.93 41.989 Q 43.112 42.104 43.34 42.168 L 43.34 42.168 L 43.34 42.168 Q 43.569 42.232 43.85 42.232 L 43.85 42.232 L 43.85 42.232 Q 44.289 42.232 44.609 42.045 L 44.609 42.045 L 44.609 42.045 Q 44.928 41.857 45.139 41.541 L 45.139 41.541 L 45.139 41.541 Q 45.35 41.225 45.449 40.8 L 45.449 40.8 L 45.449 40.8 Q 45.549 40.375 45.549 39.9 L 45.549 39.9 L 45.549 39.9 Z " fill-rule="evenodd" fill="rgb(1,35,149)"/></g><g id="outline-shopping_cart-24px"><path d=" M 22 8 L 46 8 L 46 32 L 22 32 L 22 8 Z " fill="none"/><path d=" M 37.55 21 C 38.278 21.002 38.949 20.607 39.3 19.97 L 42.88 13.48 C 43.049 13.171 43.043 12.797 42.865 12.493 C 42.687 12.19 42.362 12.003 42.01 12 L 27.21 12 L 26.27 10 L 23 10 L 23 12 L 25 12 L 28.6 19.59 L 27.25 22.03 C 26.906 22.65 26.916 23.405 27.276 24.015 C 27.636 24.626 28.291 25 29 25 L 41 25 L 41 23 L 29 23 L 30.1 21 L 37.55 21 Z  M 28.16 14 L 40.31 14 L 37.55 19 L 30.53 19 L 28.16 14 Z  M 29 26 C 27.895 26 27 26.895 27 28 C 27 29.105 27.895 30 29 30 C 30.105 30 31 29.105 31 28 C 31 26.895 30.105 26 29 26 Z  M 39 26 C 37.895 26 37 26.895 37 28 C 37 29.105 37.895 30 39 30 C 40.105 30 41 29.105 41 28 C 41 26.895 40.105 26 39 26 Z " fill="rgb(1,35,149)"/></g></g></g></g></svg>